
<svg xmlns="http://www.w3.org/2000/svg" viewBox="0 0 448 512"><path d="M224.1 141c-63.6 0-114.9 51.3-114.9 114.9S160.5 370.8 224.1 370.8 339 319.5 339 255.9 287.7 141 224.1 141zm0 186.6c-39.6 0-71.7-32.1-71.7-71.7s32.1-71.7 71.7-71.7 71.7 32.1 71.7 71.7-32.1 71.7-71.7 71.7zm146.4-194.3c0 14.9-12.1 27-27 27s-27-12.1-27-27 12.1-27 27-27 27 12.1 27 27zm76.1 27.2c-1.7-35.3-9.9-66.7-36.2-92.9S364.3 16.5 329 14.8c-35.3-1.7-141.3-1.7-176.6 0C117.1 16.5 85.7 24.7 59.5 51S16.5 117.7 14.8 153c-1.7 35.3-1.7 141.3 0 176.6 1.7 35.3 9.9 66.7 36.2 92.9s57.6 34.5 92.9 36.2c35.3 1.7 141.3 1.7 176.6 0 35.3-1.7 66.7-9.9 92.9-36.2s34.5-57.6 36.2-92.9c1.7-35.3 1.7-141.3 0-176.6zM398.8 388c-7.8 19.6-22.9 34.7-42.5 42.5-29.4 11.7-99.2 9-132.2 9s-102.7 2.6-132.2-9c-19.6-7.8-34.7-22.9-42.5-42.5-11.7-29.4-9-99.2-9-132.2s-2.6-102.7 9-132.2c7.8-19.6 22.9-34.7 42.5-42.5 29.4-11.7 99.2-9 132.2-9s102.7-2.6 132.2 9c19.6 7.8 34.7 22.9 42.5 42.5 11.7 29.4 9 99.2 9 132.2s2.7 102.7-9 132.2z"/></svg>
