<?xml version="1.0" encoding="UTF-8"?>
<svg id="Layer_1" xmlns="http://www.w3.org/2000/svg" version="1.1" viewBox="0 0 792 612">
  <!-- Generator: Adobe Illustrator 29.4.0, SVG Export Plug-In . SVG Version: 2.1.0 Build 152)  -->
  <defs>
    <style>
      .st0 {
        fill: #fff;
      }
    </style>
  </defs>
  <g>
    <g>
      <path class="st0" d="M66.53,457.71H30.8c-.16,0-.24-.16-.24-.48s.08-.48.24-.48c1.67,0,2.91-.13,3.72-.4.81-.27,1.35-.81,1.62-1.62.27-.81.4-1.99.4-3.56v-37.43c0-1.56-.14-2.73-.4-3.52-.27-.78-.81-1.32-1.62-1.62s-2.05-.44-3.72-.44c-.16,0-.24-.16-.24-.49s.08-.48.24-.48h34.28c.54,0,.81.24.81.73l.16,10.75c0,.11-.14.19-.4.24-.27.06-.46,0-.56-.16-.86-3.18-2.32-5.51-4.37-6.99-2.05-1.48-4.74-2.22-8.08-2.22h-2.42c-1.08,0-1.97.15-2.67.44-.7.3-1.21.77-1.54,1.42s-.48,1.46-.48,2.43v37.03c0,1.02.13,1.89.4,2.59.27.7.67,1.21,1.21,1.54.54.32,1.24.48,2.1.48h2.67c4.2,0,7.57-.86,10.11-2.59,2.53-1.72,4.39-4.39,5.58-8,.05-.16.23-.2.53-.12.3.08.44.18.44.28-.22,1.56-.4,3.41-.57,5.54-.16,2.13-.24,4.11-.24,5.94,0,.81-.4,1.21-1.21,1.21ZM62,439.68c0-2.21-.84-3.95-2.51-5.21-1.67-1.26-4.12-1.9-7.36-1.9h-10.91v-2.26h11c3.18,0,5.59-.55,7.23-1.66,1.64-1.1,2.47-2.6,2.47-4.49,0-.16.15-.24.44-.24s.44.08.44.24c0,1.78-.01,3.17-.04,4.16-.03,1-.04,2.04-.04,3.11,0,1.35.04,2.67.12,3.96.08,1.29.12,2.72.12,4.28,0,.11-.16.16-.48.16s-.48-.05-.48-.16Z"/>
      <path class="st0" d="M73.24,457.71c-.16,0-.24-.16-.24-.48s.08-.48.24-.48c1.67,0,2.8-.39,3.4-1.17.59-.78.89-2.25.89-4.41v-15.2c0-1.67-.19-2.9-.57-3.68-.38-.78-1.02-1.17-1.94-1.17-.48,0-1.05.1-1.7.28-.65.19-1.38.47-2.18.85-.22.11-.38,0-.48-.32-.11-.32-.11-.51,0-.56l11.24-5.5c.32-.11.51-.16.57-.16.59,0,1.18.65,1.78,1.94.59,1.29.89,3.15.89,5.58v17.95c0,2.16.31,3.63.93,4.41.62.78,1.76,1.17,3.44,1.17.16,0,.24.16.24.48s-.08.48-.24.48c-1.08,0-2.32-.03-3.72-.08-1.4-.05-2.88-.08-4.45-.08s-2.96.03-4.37.08c-1.4.06-2.64.08-3.72.08ZM94.01,457.71c-.16,0-.24-.16-.24-.48s.08-.48.24-.48c1.67,0,2.82-.39,3.44-1.17.62-.78.93-2.25.93-4.41v-11.64c0-5.71-2.02-8.57-6.06-8.57-1.67,0-3.29.4-4.85,1.21s-2.83,1.91-3.8,3.31l-.4-.97c1.83-2.69,3.89-4.86,6.19-6.51,2.29-1.64,4.78-2.47,7.48-2.47,2.86,0,5.07.78,6.63,2.34,1.56,1.56,2.34,3.85,2.34,6.87v16.41c0,2.16.31,3.63.93,4.41.62.78,1.76,1.17,3.44,1.17.21,0,.32.16.32.48s-.11.48-.32.48c-1.08,0-2.32-.03-3.72-.08-1.4-.05-2.88-.08-4.45-.08s-2.96.03-4.37.08c-1.4.06-2.64.08-3.72.08ZM115.2,457.71c-.16,0-.24-.16-.24-.48s.08-.48.24-.48c1.67,0,2.82-.39,3.44-1.17.62-.78.93-2.25.93-4.41v-11.64c0-5.71-2.02-8.57-6.06-8.57-1.67,0-3.29.4-4.85,1.21s-2.83,1.91-3.8,3.31l-.4-.97c1.83-2.69,3.89-4.86,6.18-6.51,2.29-1.64,4.78-2.47,7.48-2.47,2.86,0,5.07.82,6.63,2.47,1.56,1.64,2.34,4.19,2.34,7.64v15.52c0,2.16.31,3.63.93,4.41.62.78,1.76,1.17,3.44,1.17.21,0,.32.16.32.48s-.11.48-.32.48c-1.08,0-2.32-.03-3.72-.08-1.4-.05-2.88-.08-4.45-.08s-2.96.03-4.37.08c-1.4.06-2.64.08-3.72.08Z"/>
      <path class="st0" d="M133.79,458.28c-.22.05-.38-.04-.48-.28s-.05-.39.16-.44c1.24-.75,2.21-1.76,2.91-3.03.7-1.27,1.05-2.98,1.05-5.13v-39.29c0-1.83-.18-3.17-.53-4-.35-.83-.98-1.25-1.9-1.25-.7,0-1.7.3-2.99.89-.22.05-.39-.08-.53-.4-.14-.32-.15-.51-.04-.57l11.8-5.58c.16-.05.3-.08.4-.08.27,0,.55.12.85.36.3.24.44.47.44.69v53.03l-11.16,5.09ZM152.55,458.76c-2.32,0-4.58-.42-6.79-1.25-2.21-.84-4.21-2.06-5.98-3.68l5.17-9.46c0,3.18.54,5.71,1.62,7.6,1.08,1.89,2.37,3.22,3.88,4,1.51.78,2.86,1.17,4.04,1.17,2.37,0,4.16-1.18,5.38-3.56,1.21-2.37,1.82-5.69,1.82-9.94,0-4.85-.81-8.38-2.42-10.59-1.62-2.21-3.77-3.31-6.47-3.31-1.67,0-3.26.35-4.77,1.05-1.51.7-2.88,1.54-4.12,2.51l-.73-.65c1.13-1.13,2.33-2.25,3.6-3.35s2.71-2.02,4.33-2.75c1.62-.73,3.45-1.09,5.5-1.09,2.37,0,4.57.55,6.59,1.66,2.02,1.11,3.67,2.76,4.93,4.97s1.9,5.01,1.9,8.41c0,4.04-.85,7.42-2.55,10.15-1.7,2.72-3.87,4.76-6.51,6.1-2.64,1.35-5.44,2.02-8.41,2.02Z"/>
      <path class="st0" d="M173.72,457.71c-.16,0-.24-.16-.24-.48s.08-.48.24-.48c1.67,0,2.8-.39,3.4-1.17.59-.78.89-2.25.89-4.41v-15.2c0-1.67-.19-2.9-.57-3.68-.38-.78-1.02-1.17-1.94-1.17-.48,0-1.05.1-1.7.28-.65.19-1.38.47-2.18.85-.22.11-.38,0-.48-.32-.11-.32-.11-.51,0-.56l11.24-5.5c.32-.11.51-.16.57-.16.59,0,1.18.65,1.78,1.94.59,1.29.89,3.15.89,5.58v17.95c0,1.4.21,2.52.65,3.36.43.84,1.17,1.41,2.22,1.74s2.49.49,4.33.49c.21,0,.32.16.32.48s-.11.48-.32.48c-1.46,0-3.11-.03-4.97-.08-1.86-.05-3.87-.08-6.02-.08-1.51,0-2.96.03-4.37.08-1.4.06-2.64.08-3.72.08ZM183.59,435.8l-.65-1.05c2.1-2.42,3.88-4.28,5.33-5.58,1.46-1.29,2.7-2.2,3.72-2.71s1.94-.77,2.75-.77c1.13,0,2.3.42,3.52,1.25,1.21.84,1.82,1.93,1.82,3.27,0,1.13-.34,2.06-1.01,2.79-.68.73-1.6,1.09-2.79,1.09s-1.98-.3-2.55-.89c-.57-.59-1.08-1.17-1.54-1.74-.46-.56-1.12-.85-1.98-.85-.38,0-.8.12-1.25.36-.46.24-1.1.73-1.94,1.46s-1.98,1.85-3.44,3.35Z"/>
      <path class="st0" d="M208.49,458.28c-2.37,0-4.14-.53-5.3-1.58s-1.74-2.47-1.74-4.24.48-3.14,1.45-4.08c.97-.94,2.24-1.7,3.8-2.26,1.56-.56,3.18-1.14,4.85-1.74l8.08-2.99.32,1.21-4.61,2.1c-.43.16-1.05.42-1.86.77-.81.35-1.54.86-2.18,1.54-.65.68-.97,1.63-.97,2.87,0,1.4.46,2.44,1.37,3.11.92.68,1.83,1.01,2.75,1.01.43,0,.85-.05,1.25-.16.4-.11.88-.35,1.42-.73l4.04-2.75.08,1.29-5.66,4.04c-1.19.92-2.32,1.58-3.39,1.98-1.08.4-2.32.61-3.72.61ZM224.01,458.2c-.22.11-.49.16-.81.16-.97,0-1.94-.65-2.91-1.94-.97-1.29-1.46-3.15-1.46-5.58v-13.74c0-3.4-.27-5.89-.81-7.48-.54-1.59-1.51-2.38-2.91-2.38s-2.36.42-3.03,1.25c-.68.84-1.13,1.77-1.37,2.79-.24,1.02-.39,1.89-.44,2.59-.16,1.67-.65,2.84-1.46,3.52-.81.67-1.89,1.01-3.23,1.01s-2.4-.3-2.99-.89c-.59-.59-.89-1.32-.89-2.18,0-1.29.58-2.52,1.74-3.68,1.16-1.16,2.63-2.18,4.41-3.07s3.63-1.59,5.54-2.1,3.6-.77,5.05-.77c2.21,0,4.1.7,5.66,2.1s2.34,3.69,2.34,6.87v14.31c0,1.56.28,2.78.85,3.64.57.86,1.36,1.29,2.38,1.29.75,0,1.54-.19,2.34-.57.22-.11.39-.01.53.28.13.3.07.5-.2.61l-8.33,3.96Z"/>
      <path class="st0" d="M249.15,458.68c-3.72,0-6.79-.8-9.22-2.38-2.42-1.59-4.22-3.63-5.38-6.1-1.16-2.48-1.74-4.99-1.74-7.52,0-2.69.57-5.09,1.7-7.19,1.13-2.1,2.63-3.87,4.49-5.29,1.86-1.43,3.92-2.52,6.18-3.27,2.26-.75,4.5-1.13,6.71-1.13,1.56,0,3.13.23,4.69.69,1.56.46,2.86,1.13,3.88,2.02,1.02.89,1.54,2.01,1.54,3.36,0,.92-.38,1.77-1.13,2.55-.76.78-1.86,1.17-3.31,1.17-1.35,0-2.4-.35-3.15-1.05-.76-.7-1.35-1.72-1.78-3.07-.38-1.29-.8-2.28-1.25-2.95-.46-.67-1.33-1.01-2.63-1.01-2.32,0-4.16,1.16-5.54,3.48-1.37,2.32-2.06,5.34-2.06,9.06,0,2.7.4,5.16,1.21,7.4.81,2.24,2.13,4.02,3.96,5.34,1.83,1.32,4.28,1.98,7.36,1.98,1.62,0,2.98-.19,4.08-.57,1.1-.38,2.33-.89,3.68-1.54.11-.11.26-.05.44.16.19.22.23.38.12.48-1.89,1.73-3.83,3.06-5.82,4-2,.94-4.34,1.41-7.03,1.41Z"/>
      <path class="st0" d="M265.72,457.71c-.16,0-.24-.16-.24-.48s.08-.48.24-.48c1.67,0,2.8-.39,3.4-1.17.59-.78.89-2.25.89-4.41v-14.47c0-1.78-.18-3.08-.53-3.92-.35-.83-.98-1.25-1.9-1.25-.38,0-.82.08-1.33.24-.51.16-1.06.38-1.66.65-.22.05-.39-.08-.53-.4-.14-.32-.12-.51.04-.57l12.21-5.66c.11-.05.19-.08.24-.08.27,0,.54.14.81.4.27.27.4.51.4.73,0,.65-.03,1.73-.08,3.23-.05,1.51-.08,3.67-.08,6.47v14.63c0,2.16.31,3.63.93,4.41.62.78,1.76,1.17,3.44,1.17.16,0,.24.16.24.48s-.08.48-.24.48c-1.08,0-2.32-.03-3.72-.08-1.4-.05-2.88-.08-4.45-.08s-2.96.03-4.37.08c-1.4.06-2.64.08-3.72.08ZM273.48,417.7c-1.51,0-2.71-.43-3.6-1.29s-1.33-2.07-1.33-3.64c0-1.4.44-2.52,1.33-3.35s2.09-1.25,3.6-1.25,2.67.42,3.48,1.25c.81.84,1.21,1.95,1.21,3.35,0,3.29-1.56,4.93-4.69,4.93Z"/>
      <path class="st0" d="M284.96,457.71c-.16,0-.24-.16-.24-.48s.08-.48.24-.48c1.67,0,2.8-.39,3.4-1.17.59-.78.89-2.25.89-4.41v-15.2c0-1.67-.19-2.9-.57-3.68-.38-.78-1.02-1.17-1.94-1.17-.48,0-1.05.1-1.7.28-.65.19-1.38.47-2.18.85-.22.11-.38,0-.48-.32-.11-.32-.11-.51,0-.56l11.24-5.5c.32-.11.51-.16.57-.16.59,0,1.18.65,1.78,1.94.59,1.29.89,3.15.89,5.58v17.95c0,2.16.31,3.63.93,4.41.62.78,1.76,1.17,3.44,1.17.16,0,.24.16.24.48s-.08.48-.24.48c-1.08,0-2.32-.03-3.72-.08-1.4-.05-2.88-.08-4.45-.08s-2.96.03-4.37.08c-1.4.06-2.64.08-3.72.08ZM306.71,457.71c-.16,0-.24-.16-.24-.48s.08-.48.24-.48c1.67,0,2.8-.39,3.39-1.17.59-.78.89-2.25.89-4.41v-11.64c0-2.91-.52-5.07-1.58-6.47-1.05-1.4-2.71-2.1-4.97-2.1-1.62,0-3.27.4-4.97,1.21-1.7.81-3.06,1.91-4.08,3.31l-.4-.97c1.89-2.69,4.01-4.86,6.39-6.51,2.37-1.64,4.96-2.47,7.76-2.47,3.02,0,5.35.94,6.99,2.83,1.64,1.89,2.47,4.31,2.47,7.27v15.52c0,2.16.31,3.63.93,4.41s1.76,1.17,3.44,1.17c.16,0,.24.16.24.48s-.08.48-.24.48c-1.08,0-2.32-.03-3.72-.08-1.4-.05-2.88-.08-4.45-.08s-2.96.03-4.37.08c-1.4.06-2.64.08-3.72.08Z"/>
      <path class="st0" d="M337.02,480.51c-3.72,0-6.76-.85-9.14-2.55-2.37-1.7-3.56-3.92-3.56-6.67,0-1.73.66-3.56,1.98-5.5,1.32-1.94,3.87-4.07,7.64-6.39l.81.89c-.65.43-1.21.96-1.7,1.58-.48.62-.85,1.36-1.09,2.22-.24.86-.36,1.86-.36,2.99,0,2.42.5,4.43,1.5,6.02,1,1.59,2.28,2.79,3.84,3.6,1.56.81,3.21,1.21,4.93,1.21,2.69,0,4.86-.86,6.51-2.59,1.64-1.73,2.47-4.07,2.47-7.03,0-2.42-.53-4.15-1.58-5.17-1.05-1.02-2.49-1.66-4.33-1.9-1.83-.24-3.96-.36-6.39-.36-1.83-.05-3.67-.22-5.5-.48-1.83-.27-3.36-.85-4.57-1.74s-1.82-2.28-1.82-4.16.66-3.72,1.98-5.5c1.32-1.78,3.44-3.37,6.35-4.77l.73.48c-1.08.65-1.89,1.36-2.42,2.14-.54.78-.81,1.74-.81,2.87,0,1.51.42,2.59,1.25,3.23.83.65,2.01,1.04,3.52,1.17,1.51.14,3.26.23,5.25.28,1.83,0,3.63.07,5.38.2,1.75.14,3.36.47,4.81,1.01,1.46.54,2.61,1.4,3.48,2.59.86,1.18,1.29,2.83,1.29,4.93,0,2.32-.54,4.51-1.62,6.59-1.08,2.07-2.56,3.92-4.45,5.54-1.89,1.62-4.07,2.9-6.55,3.84-2.48.94-5.09,1.42-7.84,1.42ZM338.4,446.96c-2.59,0-4.83-.54-6.71-1.62-1.89-1.08-3.34-2.45-4.37-4.12-1.02-1.67-1.54-3.4-1.54-5.17,0-2.26.73-4.15,2.18-5.66,1.46-1.51,3.27-2.63,5.46-3.35,2.18-.73,4.35-1.09,6.51-1.09,2.48,0,4.66.44,6.55,1.33,1.89.89,3.38,2.09,4.49,3.6,1.1,1.51,1.66,3.23,1.66,5.17,0,2.26-.72,4.2-2.14,5.82-1.43,1.62-3.23,2.87-5.42,3.76-2.18.89-4.41,1.33-6.67,1.33ZM340.5,445.51c1.08,0,2.05-.54,2.91-1.62.86-1.08,1.29-2.94,1.29-5.58,0-2.48-.39-4.51-1.17-6.1-.78-1.59-1.75-2.77-2.91-3.56-1.16-.78-2.28-1.17-3.36-1.17-1.29,0-2.22.54-2.79,1.62-.56,1.08-.85,2.59-.85,4.53,0,2.32.34,4.37,1.01,6.14s1.54,3.18,2.59,4.2c1.05,1.02,2.14,1.54,3.27,1.54ZM346.72,432.41l.16-2.59c1.72-1.35,3.41-2.37,5.05-3.07,1.64-.7,3.46-1.05,5.46-1.05.27,0,.44.22.52.65.08.43.12.97.12,1.62,0,.76-.11,1.59-.32,2.51-.22.92-.43,1.29-.65,1.13-.97-.43-1.97-.77-2.99-1.01-1.02-.24-2.02-.36-2.99-.36-.65,0-1.28.04-1.9.12-.62.08-1.28.26-1.98.52l-.49,1.54Z"/>
      <path class="st0" d="M431.61,456.74c.27,0,.4.16.4.48s-.14.48-.4.48c-1.62,0-3.3-.05-5.05-.16-1.75-.11-3.44-.16-5.05-.16-1.83,0-3.42.05-4.77.16-1.35.11-2.86.16-4.53.16-.22,0-.32-.16-.32-.48s.11-.48.32-.48c2.21,0,3.49-.44,3.84-1.33.35-.89-.15-2.65-1.5-5.3l-16.41-32.42,3.96-6.95-16.09,35.49c-1.46,3.23-1.48,5.79-.08,7.68,1.4,1.89,3.61,2.83,6.63,2.83.27,0,.4.16.4.48s-.14.48-.4.48c-1.62,0-3.1-.05-4.45-.16-1.35-.11-3.05-.16-5.09-.16s-3.79.05-5.05.16c-1.27.11-2.82.16-4.65.16-.22,0-.32-.16-.32-.48s.11-.48.32-.48c1.46,0,2.71-.31,3.76-.93,1.05-.62,2.1-1.75,3.15-3.39,1.05-1.64,2.25-3.97,3.6-6.99l17.54-38.56c.05-.16.3-.26.73-.28s.67.07.73.28l20.21,39.77c1.29,2.53,2.41,4.54,3.36,6.02.94,1.48,1.83,2.53,2.67,3.15.83.62,1.68.93,2.55.93ZM387.47,439.2l1.21-2.26h23.28l.57,2.26h-25.06Z"/>
      <path class="st0" d="M445.03,458.68c-2.96,0-5.3-.94-6.99-2.83-1.7-1.89-2.55-4.31-2.55-7.28v-11.88c0-1.78-.2-3.1-.61-3.96-.4-.86-1.04-1.29-1.9-1.29-.59,0-1.27.19-2.02.57-.22.05-.39-.08-.53-.4-.14-.32-.12-.51.04-.57l10.83-5.17c.16-.05.3-.08.4-.08.27,0,.55.12.85.36.3.24.44.47.44.69v17.87c0,2.91.55,5.09,1.66,6.55,1.1,1.45,2.79,2.18,5.05,2.18,1.56,0,3.13-.44,4.69-1.33,1.56-.89,2.8-2.01,3.72-3.35l.49.97c-1.83,2.64-3.88,4.8-6.14,6.47-2.26,1.67-4.74,2.51-7.44,2.51ZM464.11,426.83v21.5c0,1.83.17,3.13.52,3.88.35.76.93,1.13,1.74,1.13.38,0,.85-.08,1.41-.24s1.2-.38,1.9-.65c.21-.11.4-.01.57.28.16.3.16.5,0,.61l-11.16,5.42c-.11.05-.24.08-.4.08-.54,0-1.02-.68-1.45-2.02-.43-1.35-.65-3.26-.65-5.74v-14.39c0-1.78-.2-3.1-.61-3.96-.4-.86-1.04-1.29-1.9-1.29-.59,0-1.29.19-2.1.57-.16.05-.31-.08-.44-.4s-.12-.51.04-.57l10.83-5.17c.11-.05.24-.08.4-.08.27,0,.55.12.85.36.3.24.44.47.44.69Z"/>
      <path class="st0" d="M483.19,458.68c-1.29,0-2.6-.22-3.92-.65s-2.42-1.18-3.31-2.26c-.89-1.08-1.33-2.59-1.33-4.53v-17.95c0-1.13-.14-2.02-.4-2.67-.27-.65-.7-1.1-1.29-1.37-.59-.27-1.4-.4-2.42-.4-.22,0-.32-.24-.32-.73s.11-.73.32-.73c2.75-.11,4.98-.71,6.71-1.82,1.72-1.1,3.02-2.73,3.88-4.89.11-.21.34-.32.69-.32s.53.11.53.32v27.89c0,2.16.55,3.69,1.66,4.61,1.1.92,2.47,1.37,4.08,1.37,1.24,0,2.41-.26,3.52-.77,1.1-.51,2.03-1.06,2.79-1.66.16-.16.36-.12.61.12s.26.44.04.61c-2,1.99-3.92,3.46-5.78,4.41-1.86.94-3.87,1.41-6.02,1.41ZM492.48,430.63c-2.21-.48-4.35-.82-6.43-1.01-2.08-.19-4.27-.28-6.59-.28v-2.1c2.21,0,4.38-.08,6.51-.24,2.13-.16,4.41-.35,6.83-.56.11,0,.23.2.36.61.13.4.2.85.2,1.33,0,.54-.1,1.06-.28,1.58-.19.51-.39.74-.61.69Z"/>
      <path class="st0" d="M495.15,457.71c-.11,0-.16-.16-.16-.48s.05-.48.16-.48c1.67,0,2.82-.39,3.44-1.17s.93-2.25.93-4.41v-41.07c0-1.83-.16-3.17-.49-4-.32-.83-.94-1.25-1.86-1.25-.76,0-1.78.3-3.07.89-.16.05-.32-.08-.48-.4s-.19-.51-.08-.57l11.8-5.58c.11-.05.19-.08.24-.08h.16c.27,0,.55.12.85.36.3.24.44.47.44.69v51.01c0,2.16.31,3.63.93,4.41.62.78,1.76,1.17,3.44,1.17.22,0,.32.16.32.48s-.11.48-.32.48c-1.08,0-2.3-.03-3.68-.08-1.37-.05-2.84-.08-4.41-.08s-3.05.03-4.45.08c-1.4.06-2.64.08-3.72.08ZM516.9,457.71c-.11,0-.16-.16-.16-.48s.05-.48.16-.48c1.67,0,2.82-.39,3.44-1.17.62-.78.93-2.25.93-4.41v-11.64c0-5.71-2.21-8.57-6.63-8.57-1.62,0-3.27.4-4.97,1.21-1.7.81-3.03,1.91-4,3.31l-.49-.97c1.89-2.69,4.01-4.86,6.39-6.51,2.37-1.64,4.96-2.47,7.76-2.47,3.02,0,5.35.94,6.99,2.83,1.64,1.89,2.47,4.31,2.47,7.27v15.52c0,2.16.31,3.63.93,4.41.62.78,1.76,1.17,3.44,1.17.21,0,.32.16.32.48s-.11.48-.32.48c-1.08,0-2.3-.03-3.68-.08-1.37-.05-2.84-.08-4.41-.08s-3.05.03-4.45.08c-1.4.06-2.64.08-3.72.08Z"/>
      <path class="st0" d="M551.58,458.68c-3.5,0-6.48-.73-8.93-2.18s-4.31-3.38-5.58-5.78c-1.27-2.4-1.9-4.97-1.9-7.72,0-3.18.78-6.06,2.34-8.65,1.56-2.59,3.72-4.66,6.47-6.23,2.75-1.56,5.9-2.34,9.46-2.34,3.18,0,5.73.73,7.64,2.18,1.91,1.46,2.87,3.83,2.87,7.11,0,.7-.05,1.29-.16,1.78-.11.49-.35.73-.73.73h-7.76c.11-3.07-.19-5.54-.89-7.4-.7-1.86-2.05-2.79-4.04-2.79-2.16,0-3.87,1.11-5.13,3.31-1.27,2.21-1.9,5.15-1.9,8.81,0,3.13.48,5.82,1.46,8.08.97,2.26,2.4,4.02,4.28,5.26s4.2,1.86,6.95,1.86c1.62,0,2.98-.2,4.08-.61s2.33-.96,3.68-1.66c.11-.11.26-.05.44.16.19.22.23.4.12.57-2,1.99-4.03,3.41-6.1,4.24-2.08.84-4.3,1.25-6.67,1.25ZM540.5,437.66l-.08-1.54,17.71-.32v1.78l-17.62.08Z"/>
      <path class="st0" d="M567.5,457.71c-.16,0-.24-.16-.24-.48s.08-.48.24-.48c1.67,0,2.8-.39,3.4-1.17.59-.78.89-2.25.89-4.41v-15.2c0-1.67-.19-2.9-.57-3.68-.38-.78-1.02-1.17-1.94-1.17-.48,0-1.05.1-1.7.28-.65.19-1.38.47-2.18.85-.22.11-.38,0-.48-.32-.11-.32-.11-.51,0-.56l11.24-5.5c.32-.11.51-.16.57-.16.59,0,1.18.65,1.78,1.94.59,1.29.89,3.15.89,5.58v17.95c0,2.16.31,3.63.93,4.41.62.78,1.76,1.17,3.44,1.17.16,0,.24.16.24.48s-.08.48-.24.48c-1.08,0-2.32-.03-3.72-.08-1.4-.05-2.88-.08-4.45-.08s-2.96.03-4.37.08c-1.4.06-2.64.08-3.72.08ZM589.25,457.71c-.16,0-.24-.16-.24-.48s.08-.48.24-.48c1.67,0,2.8-.39,3.39-1.17.59-.78.89-2.25.89-4.41v-11.64c0-2.91-.52-5.07-1.58-6.47-1.05-1.4-2.71-2.1-4.97-2.1-1.62,0-3.27.4-4.97,1.21-1.7.81-3.06,1.91-4.08,3.31l-.4-.97c1.89-2.69,4.01-4.86,6.39-6.51,2.37-1.64,4.96-2.47,7.76-2.47,3.02,0,5.35.94,6.99,2.83,1.64,1.89,2.47,4.31,2.47,7.27v15.52c0,2.16.31,3.63.93,4.41s1.76,1.17,3.44,1.17c.16,0,.24.16.24.48s-.08.48-.24.48c-1.08,0-2.32-.03-3.72-.08-1.4-.05-2.88-.08-4.45-.08s-2.96.03-4.37.08c-1.4.06-2.64.08-3.72.08Z"/>
      <path class="st0" d="M619.73,458.68c-1.29,0-2.6-.22-3.92-.65s-2.42-1.18-3.31-2.26c-.89-1.08-1.33-2.59-1.33-4.53v-17.95c0-1.13-.14-2.02-.4-2.67-.27-.65-.7-1.1-1.29-1.37-.59-.27-1.4-.4-2.42-.4-.22,0-.32-.24-.32-.73s.11-.73.32-.73c2.75-.11,4.98-.71,6.71-1.82,1.72-1.1,3.02-2.73,3.88-4.89.11-.21.34-.32.69-.32s.53.11.53.32v27.89c0,2.16.55,3.69,1.66,4.61,1.1.92,2.47,1.37,4.08,1.37,1.24,0,2.41-.26,3.52-.77,1.1-.51,2.03-1.06,2.79-1.66.16-.16.36-.12.61.12s.26.44.04.61c-2,1.99-3.92,3.46-5.78,4.41-1.86.94-3.87,1.41-6.02,1.41ZM629.02,430.63c-2.21-.48-4.35-.82-6.43-1.01-2.08-.19-4.27-.28-6.59-.28v-2.1c2.21,0,4.38-.08,6.51-.24,2.13-.16,4.41-.35,6.83-.56.11,0,.23.2.36.61.13.4.2.85.2,1.33,0,.54-.1,1.06-.28,1.58-.19.51-.39.74-.61.69Z"/>
      <path class="st0" d="M633.15,457.71c-.16,0-.24-.16-.24-.48s.08-.48.24-.48c1.67,0,2.8-.39,3.4-1.17.59-.78.89-2.25.89-4.41v-14.47c0-1.78-.18-3.08-.53-3.92-.35-.83-.98-1.25-1.9-1.25-.38,0-.82.08-1.33.24-.51.16-1.06.38-1.66.65-.22.05-.39-.08-.53-.4-.14-.32-.12-.51.04-.57l12.21-5.66c.11-.05.19-.08.24-.08.27,0,.54.14.81.4.27.27.4.51.4.73,0,.65-.03,1.73-.08,3.23-.05,1.51-.08,3.67-.08,6.47v14.63c0,2.16.31,3.63.93,4.41.62.78,1.76,1.17,3.44,1.17.16,0,.24.16.24.48s-.08.48-.24.48c-1.08,0-2.32-.03-3.72-.08-1.4-.05-2.88-.08-4.45-.08s-2.96.03-4.37.08c-1.4.06-2.64.08-3.72.08ZM640.91,417.7c-1.51,0-2.71-.43-3.6-1.29s-1.33-2.07-1.33-3.64c0-1.4.44-2.52,1.33-3.35s2.09-1.25,3.6-1.25,2.67.42,3.48,1.25c.81.84,1.21,1.95,1.21,3.35,0,3.29-1.56,4.93-4.69,4.93Z"/>
      <path class="st0" d="M668.15,458.68c-3.72,0-6.79-.8-9.22-2.38-2.42-1.59-4.22-3.63-5.38-6.1-1.16-2.48-1.74-4.99-1.74-7.52,0-2.69.57-5.09,1.7-7.19,1.13-2.1,2.63-3.87,4.49-5.29,1.86-1.43,3.92-2.52,6.18-3.27,2.26-.75,4.5-1.13,6.71-1.13,1.56,0,3.13.23,4.69.69,1.56.46,2.86,1.13,3.88,2.02,1.02.89,1.54,2.01,1.54,3.36,0,.92-.38,1.77-1.13,2.55-.76.78-1.86,1.17-3.31,1.17-1.35,0-2.4-.35-3.15-1.05-.76-.7-1.35-1.72-1.78-3.07-.38-1.29-.8-2.28-1.25-2.95-.46-.67-1.33-1.01-2.63-1.01-2.32,0-4.16,1.16-5.54,3.48-1.37,2.32-2.06,5.34-2.06,9.06,0,2.7.4,5.16,1.21,7.4.81,2.24,2.13,4.02,3.96,5.34,1.83,1.32,4.28,1.98,7.36,1.98,1.62,0,2.98-.19,4.08-.57,1.1-.38,2.33-.89,3.68-1.54.11-.11.26-.05.44.16.19.22.23.38.12.48-1.89,1.73-3.83,3.06-5.82,4-2,.94-4.34,1.41-7.03,1.41Z"/>
      <path class="st0" d="M684.72,457.71c-.16,0-.24-.16-.24-.48s.08-.48.24-.48c1.67,0,2.8-.39,3.4-1.17.59-.78.89-2.25.89-4.41v-14.47c0-1.78-.18-3.08-.53-3.92-.35-.83-.98-1.25-1.9-1.25-.38,0-.82.08-1.33.24-.51.16-1.06.38-1.66.65-.22.05-.39-.08-.53-.4-.14-.32-.12-.51.04-.57l12.21-5.66c.11-.05.19-.08.24-.08.27,0,.54.14.81.4.27.27.4.51.4.73,0,.65-.03,1.73-.08,3.23-.05,1.51-.08,3.67-.08,6.47v14.63c0,2.16.31,3.63.93,4.41.62.78,1.76,1.17,3.44,1.17.16,0,.24.16.24.48s-.08.48-.24.48c-1.08,0-2.32-.03-3.72-.08-1.4-.05-2.88-.08-4.45-.08s-2.96.03-4.37.08c-1.4.06-2.64.08-3.72.08ZM692.48,417.7c-1.51,0-2.71-.43-3.6-1.29s-1.33-2.07-1.33-3.64c0-1.4.44-2.52,1.33-3.35s2.09-1.25,3.6-1.25,2.67.42,3.48,1.25c.81.84,1.21,1.95,1.21,3.35,0,3.29-1.56,4.93-4.69,4.93Z"/>
      <path class="st0" d="M715.68,458.68c-1.29,0-2.6-.22-3.92-.65s-2.42-1.18-3.31-2.26c-.89-1.08-1.33-2.59-1.33-4.53v-17.95c0-1.13-.14-2.02-.4-2.67-.27-.65-.7-1.1-1.29-1.37-.59-.27-1.4-.4-2.42-.4-.22,0-.32-.24-.32-.73s.11-.73.32-.73c2.75-.11,4.98-.71,6.71-1.82,1.72-1.1,3.02-2.73,3.88-4.89.11-.21.34-.32.69-.32s.53.11.53.32v27.89c0,2.16.55,3.69,1.66,4.61,1.1.92,2.47,1.37,4.08,1.37,1.24,0,2.41-.26,3.52-.77,1.1-.51,2.03-1.06,2.79-1.66.16-.16.36-.12.61.12s.26.44.04.61c-2,1.99-3.92,3.46-5.78,4.41-1.86.94-3.87,1.41-6.02,1.41ZM724.98,430.63c-2.21-.48-4.35-.82-6.43-1.01-2.08-.19-4.27-.28-6.59-.28v-2.1c2.21,0,4.38-.08,6.51-.24,2.13-.16,4.41-.35,6.83-.56.11,0,.23.2.36.61.13.4.2.85.2,1.33,0,.54-.1,1.06-.28,1.58-.19.51-.39.74-.61.69Z"/>
      <path class="st0" d="M761.6,426.51c.11,0,.16.16.16.48s-.06.49-.16.49c-1.83,0-3.37.78-4.61,2.34-1.24,1.56-2.34,3.67-3.31,6.31l-8.97,23.85c-1.94,5.17-3.81,9.26-5.62,12.25-1.81,2.99-3.63,5.11-5.46,6.35-1.83,1.24-3.77,1.86-5.82,1.86-1.56,0-2.79-.34-3.68-1.01s-1.33-1.66-1.33-2.95.39-2.25,1.17-2.87c.78-.62,1.68-.93,2.71-.93.92,0,1.64.17,2.18.53.54.35,1.08.7,1.62,1.05.54.35,1.24.52,2.1.52,1.29,0,2.48-.55,3.56-1.66,1.08-1.1,2.24-2.99,3.48-5.66s2.69-6.32,4.37-10.95l-.24,4.45-13.74-27.73c-1.19-2.37-2.12-3.92-2.79-4.65s-1.5-1.09-2.47-1.09c-.16,0-.24-.16-.24-.49s.08-.48.24-.48c1.08,0,2.22.03,3.44.08s2.36.08,3.44.08c1.94,0,3.64-.03,5.09-.08s2.78-.08,3.96-.08c.16,0,.24.16.24.48s-.08.49-.24.49c-1.89,0-3.1.22-3.64.65-.54.43-.51,1.27.08,2.51l10.27,21.02-2.91,4.77,7.03-20.37c.92-2.64.98-4.73.2-6.27s-2.28-2.3-4.49-2.3c-.11,0-.16-.16-.16-.49s.05-.48.16-.48c1.29,0,2.52.03,3.68.08,1.16.05,2.65.08,4.49.08,1.29,0,2.36-.03,3.19-.08s1.85-.08,3.03-.08Z"/>
    </g>
    <g>
      <path class="st0" d="M59.03,516.81c.13,0,.2.08.2.24s-.07.24-.2.24c-.79,0-1.62-.03-2.48-.08-.86-.05-1.69-.08-2.48-.08-.9,0-1.68.03-2.34.08-.66.05-1.4.08-2.22.08-.11,0-.16-.08-.16-.24s.05-.24.16-.24c1.09,0,1.71-.22,1.89-.66.17-.44-.07-1.3-.73-2.6l-8.06-15.93,1.95-3.42-7.9,17.44c-.72,1.59-.73,2.85-.04,3.77.69.93,1.77,1.39,3.26,1.39.13,0,.2.08.2.24s-.07.24-.2.24c-.79,0-1.52-.03-2.18-.08-.66-.05-1.5-.08-2.5-.08s-1.86.03-2.48.08c-.62.05-1.38.08-2.28.08-.1,0-.16-.08-.16-.24s.05-.24.16-.24c.72,0,1.33-.15,1.85-.46.52-.3,1.03-.86,1.55-1.67s1.11-1.95,1.77-3.44l8.62-18.95c.03-.08.15-.13.36-.14.21-.01.33.03.36.14l9.93,19.54c.64,1.25,1.18,2.23,1.65,2.96.46.73.9,1.25,1.31,1.55.41.31.83.46,1.25.46ZM37.34,508.19l.6-1.11h11.44l.28,1.11h-12.31Z"/>
      <path class="st0" d="M73.77,503.86c0,.56.15,1.05.46,1.49.3.44.69.83,1.17,1.19.48.36.99.71,1.55,1.05.66.37,1.31.76,1.95,1.17s1.17.91,1.59,1.49c.42.58.64,1.34.64,2.26,0,.85-.22,1.68-.66,2.48-.44.81-1.09,1.46-1.97,1.97s-1.97.75-3.3.75c-.66,0-1.32-.07-1.99-.22-.66-.15-1.38-.43-2.15-.85-.05-.05-.11-.12-.16-.2-.05-.08-.08-.17-.08-.28l-.08-3.93c0-.08.07-.13.22-.14.15-.01.23,0,.26.06.29.85.7,1.64,1.23,2.36.53.73,1.13,1.31,1.81,1.75.68.44,1.36.66,2.05.66.53,0,.97-.16,1.31-.5s.52-.84.52-1.53c0-.74-.17-1.36-.5-1.85-.33-.49-.75-.91-1.25-1.27-.5-.36-1.02-.68-1.55-.97-.61-.34-1.22-.7-1.83-1.07-.61-.37-1.11-.84-1.51-1.41-.4-.57-.6-1.32-.6-2.25,0-1.11.28-2,.83-2.66.56-.66,1.28-1.14,2.17-1.43.89-.29,1.81-.44,2.76-.44.58,0,1.12.04,1.61.12.49.08,1.05.24,1.69.48.24.08.36.23.36.44,0,.53-.01,1.08-.04,1.65-.03.57-.04,1.2-.04,1.89,0,.08-.08.12-.24.12s-.24-.04-.24-.12c0-.5-.21-1.05-.62-1.63-.41-.58-.95-1.09-1.61-1.53-.66-.44-1.38-.65-2.14-.65-.37,0-.74.09-1.09.28-.36.19-.54.61-.54,1.27Z"/>
      <path class="st0" d="M83.9,528.21c-.08,0-.12-.08-.12-.24s.04-.24.12-.24c.93,0,1.53-.17,1.81-.52.28-.34.42-1.09.42-2.22v-18.39c0-.82-.09-1.42-.28-1.81-.19-.38-.52-.58-.99-.58-.21,0-.48.05-.79.14s-.66.23-1.03.42c-.11.05-.2,0-.28-.16-.08-.16-.09-.25-.04-.28l5.64-2.74c.05-.03.12-.04.2-.04.29,0,.58.32.85.95.28.64.42,1.55.42,2.74v19.74c0,.74.09,1.31.26,1.71.17.4.51.67,1.01.81.5.15,1.26.22,2.26.22.08,0,.12.08.12.24s-.04.24-.12.24c-.74,0-1.58-.01-2.5-.04-.93-.03-1.91-.04-2.94-.04-.74,0-1.46.01-2.17.04-.7.02-1.32.04-1.85.04ZM93.23,517.8c-1.03,0-1.91-.08-2.64-.24-.73-.16-1.6-.41-2.6-.75l1.39-2.5c.58.71,1.21,1.31,1.89,1.79s1.58.72,2.72.72c1.24,0,2.22-.54,2.94-1.63.72-1.09,1.07-2.82,1.07-5.2,0-2.12-.49-3.7-1.47-4.75-.98-1.05-2.13-1.57-3.46-1.57-.98,0-1.83.25-2.54.75-.72.5-1.42,1.14-2.11,1.91l-.4-.48c1.35-1.56,2.64-2.69,3.87-3.38s2.5-1.03,3.79-1.03c1.11,0,2.14.28,3.1.85.95.57,1.73,1.4,2.32,2.48.6,1.09.89,2.41.89,3.97,0,1.69-.27,3.13-.81,4.29-.54,1.17-1.25,2.1-2.13,2.8s-1.82,1.21-2.84,1.51-2.02.46-3,.46Z"/>
      <path class="st0" d="M108.69,517.56c-1.17,0-2.03-.26-2.6-.77-.57-.52-.85-1.21-.85-2.09s.24-1.54.71-2.01c.48-.46,1.1-.83,1.87-1.11.77-.28,1.56-.56,2.38-.85l3.97-1.47.16.6-2.26,1.03c-.21.08-.52.21-.91.38-.4.17-.76.42-1.07.76s-.48.8-.48,1.41c0,.69.22,1.2.68,1.53.45.33.9.5,1.35.5.21,0,.42-.03.62-.08.2-.05.43-.17.69-.36l1.99-1.35.04.64-2.78,1.99c-.58.45-1.14.77-1.67.97-.53.2-1.14.3-1.83.3ZM116.31,517.52c-.11.05-.24.08-.4.08-.48,0-.95-.32-1.43-.95s-.72-1.55-.72-2.74v-6.75c0-1.67-.13-2.89-.4-3.67-.27-.78-.74-1.17-1.43-1.17s-1.16.2-1.49.62c-.33.41-.56.87-.68,1.37s-.19.93-.22,1.27c-.08.82-.32,1.4-.72,1.73-.4.33-.93.5-1.59.5s-1.18-.15-1.47-.44-.44-.65-.44-1.07c0-.64.28-1.24.85-1.81.57-.57,1.29-1.07,2.17-1.51.87-.44,1.78-.78,2.72-1.03.94-.25,1.77-.38,2.48-.38,1.09,0,2.01.35,2.78,1.03.77.69,1.15,1.81,1.15,3.38v7.03c0,.77.14,1.36.42,1.79s.67.64,1.17.64c.37,0,.75-.09,1.15-.28.1-.05.19,0,.26.14.06.15.03.25-.1.3l-4.09,1.95Z"/>
      <path class="st0" d="M130.06,517.76c-1.83,0-3.34-.39-4.53-1.17-1.19-.78-2.07-1.78-2.64-3-.57-1.22-.85-2.45-.85-3.69,0-1.32.28-2.5.84-3.54.56-1.03,1.29-1.9,2.2-2.6s1.93-1.24,3.04-1.61c1.11-.37,2.21-.56,3.3-.56.77,0,1.54.11,2.3.34.77.23,1.4.56,1.91.99.5.44.76.99.76,1.65,0,.45-.19.87-.56,1.25-.37.39-.91.58-1.63.58-.66,0-1.18-.17-1.55-.52-.37-.34-.66-.85-.87-1.51-.19-.64-.39-1.12-.62-1.45s-.66-.5-1.29-.5c-1.14,0-2.05.57-2.72,1.71-.68,1.14-1.01,2.62-1.01,4.45,0,1.32.2,2.54.6,3.63.4,1.1,1.05,1.97,1.95,2.62s2.11.97,3.62.97c.79,0,1.46-.09,2.01-.28.54-.19,1.15-.44,1.81-.75.05-.05.13-.03.22.08.09.11.11.19.06.24-.93.85-1.88,1.5-2.86,1.97-.98.46-2.13.69-3.46.69Z"/>
      <path class="st0" d="M147.14,517.76c-1.72,0-3.18-.36-4.39-1.07-1.21-.72-2.12-1.66-2.74-2.84-.62-1.18-.93-2.44-.93-3.79,0-1.56.38-2.98,1.15-4.25.77-1.27,1.83-2.29,3.18-3.06s2.9-1.15,4.65-1.15c1.56,0,2.81.36,3.75,1.07.94.71,1.41,1.88,1.41,3.5,0,.34-.03.64-.08.87-.05.24-.17.36-.36.36h-3.81c.05-1.51-.09-2.72-.44-3.63-.34-.91-1.01-1.37-1.99-1.37-1.06,0-1.9.54-2.52,1.63-.62,1.09-.93,2.53-.93,4.33,0,1.54.24,2.86.71,3.97.48,1.11,1.18,1.97,2.11,2.58s2.07.91,3.42.91c.79,0,1.46-.1,2.01-.3s1.15-.47,1.81-.81c.05-.05.13-.03.22.08s.11.2.06.28c-.98.98-1.98,1.68-3,2.09-1.02.41-2.11.62-3.28.62ZM141.69,507.43l-.04-.75,8.7-.16v.87l-8.66.04Z"/>
      <path class="st0" d="M171.81,517.76c-.64,0-1.28-.11-1.93-.32-.65-.21-1.19-.58-1.63-1.11-.44-.53-.65-1.27-.65-2.22v-8.82c0-.56-.07-.99-.2-1.31s-.35-.54-.64-.68c-.29-.13-.69-.2-1.19-.2-.11,0-.16-.12-.16-.36s.05-.36.16-.36c1.35-.05,2.45-.35,3.3-.89s1.48-1.34,1.91-2.4c.05-.11.16-.16.34-.16s.26.05.26.16v13.7c0,1.06.27,1.81.81,2.26s1.21.68,2.01.68c.61,0,1.18-.13,1.73-.38s1-.52,1.37-.81c.08-.08.18-.06.3.06.12.12.13.22.02.3-.98.98-1.93,1.7-2.84,2.17-.91.46-1.9.69-2.96.69ZM176.37,503.98c-1.09-.24-2.14-.4-3.16-.5-1.02-.09-2.1-.14-3.24-.14v-1.03c1.09,0,2.15-.04,3.2-.12,1.05-.08,2.17-.17,3.36-.28.05,0,.11.1.18.3s.1.42.1.65c0,.27-.05.52-.14.77-.09.25-.19.36-.3.34Z"/>
      <path class="st0" d="M187.65,517.8c-1.67,0-3.11-.38-4.33-1.15s-2.16-1.79-2.82-3.08c-.66-1.28-.99-2.67-.99-4.15,0-1.38.27-2.57.8-3.58.53-1.01,1.23-1.83,2.1-2.48s1.83-1.13,2.86-1.45,2.05-.48,3.06-.48c1.69,0,3.14.4,4.35,1.19,1.2.79,2.13,1.81,2.76,3.06.64,1.24.95,2.57.95,3.97,0,1.62-.4,3.04-1.21,4.27-.81,1.23-1.87,2.18-3.2,2.86-1.33.68-2.77,1.01-4.33,1.01ZM188.85,516.96c1.06,0,1.85-.52,2.38-1.55.53-1.03.79-2.49.79-4.37s-.24-3.55-.73-4.85c-.49-1.3-1.12-2.28-1.89-2.94-.77-.66-1.58-.99-2.42-.99-1.03,0-1.82.46-2.36,1.39-.54.93-.81,2.36-.81,4.29,0,1.8.23,3.38.68,4.75s1.06,2.42,1.83,3.16c.77.74,1.62,1.11,2.54,1.11Z"/>
      <path class="st0" d="M214.98,528.48c-1.83,0-3.32-.42-4.49-1.25-1.17-.83-1.75-1.93-1.75-3.28,0-.85.32-1.75.97-2.7.65-.95,1.9-2,3.75-3.14l.4.44c-.32.21-.6.47-.83.77-.24.31-.42.67-.54,1.09-.12.42-.18.91-.18,1.47,0,1.19.24,2.18.73,2.96.49.78,1.12,1.37,1.89,1.77.77.4,1.58.6,2.42.6,1.32,0,2.39-.42,3.2-1.27.81-.85,1.21-2,1.21-3.46,0-1.19-.26-2.04-.77-2.54s-1.22-.81-2.13-.93c-.9-.12-1.95-.18-3.14-.18-.9-.03-1.8-.11-2.7-.24-.9-.13-1.65-.42-2.24-.85-.6-.44-.89-1.12-.89-2.05s.32-1.83.97-2.7c.65-.87,1.69-1.65,3.12-2.34l.36.24c-.53.32-.93.67-1.19,1.05-.27.38-.4.85-.4,1.41,0,.74.21,1.27.62,1.59s.99.51,1.73.58,1.6.11,2.58.14c.9,0,1.78.03,2.64.1s1.65.23,2.36.5c.71.27,1.28.69,1.71,1.27.42.58.64,1.39.64,2.42,0,1.14-.27,2.22-.8,3.24-.53,1.02-1.26,1.93-2.18,2.72s-2,1.42-3.22,1.89c-1.22.46-2.5.7-3.85.7ZM215.66,512c-1.27,0-2.37-.26-3.3-.79-.93-.53-1.64-1.2-2.15-2.03-.5-.82-.75-1.67-.75-2.54,0-1.11.36-2.04,1.07-2.78.71-.74,1.61-1.29,2.68-1.65,1.07-.36,2.14-.54,3.2-.54,1.22,0,2.29.22,3.22.66.93.44,1.66,1.03,2.2,1.77s.81,1.59.81,2.54c0,1.11-.35,2.07-1.05,2.86-.7.79-1.59,1.41-2.66,1.85-1.07.44-2.16.65-3.28.65ZM216.69,511.28c.53,0,1.01-.27,1.43-.8.42-.53.64-1.44.64-2.74,0-1.22-.19-2.22-.58-3s-.86-1.36-1.43-1.75-1.12-.58-1.65-.58c-.64,0-1.09.27-1.37.79-.28.53-.42,1.27-.42,2.22,0,1.14.17,2.14.5,3.02.33.87.75,1.56,1.27,2.07s1.05.76,1.61.76ZM219.75,504.85l.08-1.27c.85-.66,1.67-1.16,2.48-1.51.81-.34,1.7-.52,2.68-.52.13,0,.22.11.26.32.04.21.06.48.06.8,0,.37-.05.78-.16,1.23-.11.45-.21.64-.32.56-.48-.21-.97-.38-1.47-.5-.5-.12-.99-.18-1.47-.18-.32,0-.63.02-.93.06-.3.04-.63.13-.97.26l-.24.76Z"/>
      <path class="st0" d="M227.62,517.28c-.08,0-.12-.08-.12-.24s.04-.24.12-.24c.82,0,1.38-.19,1.67-.58s.44-1.11.44-2.17v-7.47c0-.82-.09-1.42-.28-1.81-.19-.38-.5-.58-.95-.58-.24,0-.52.05-.83.14-.32.09-.68.23-1.07.42-.11.05-.19,0-.24-.16-.05-.16-.05-.25,0-.28l5.52-2.7c.16-.05.25-.08.28-.08.29,0,.58.32.87.95.29.64.44,1.55.44,2.74v8.82c0,.69.11,1.24.32,1.65.21.41.58.69,1.09.85s1.22.24,2.13.24c.11,0,.16.08.16.24s-.05.24-.16.24c-.71,0-1.53-.01-2.44-.04-.91-.03-1.9-.04-2.96-.04-.74,0-1.46.01-2.14.04-.69.03-1.3.04-1.83.04ZM232.46,506.52l-.32-.52c1.03-1.19,1.91-2.11,2.62-2.74.72-.64,1.32-1.08,1.83-1.33.5-.25.95-.38,1.35-.38.56,0,1.13.21,1.73.62.6.41.89.95.89,1.61,0,.56-.17,1.01-.5,1.37-.33.36-.79.54-1.37.54s-.97-.15-1.25-.44c-.28-.29-.53-.58-.75-.85-.23-.28-.55-.42-.97-.42-.19,0-.39.06-.62.18-.23.12-.54.36-.95.72-.41.36-.97.91-1.69,1.65Z"/>
      <path class="st0" d="M250.46,517.8c-1.67,0-3.11-.38-4.33-1.15s-2.16-1.79-2.82-3.08c-.66-1.28-.99-2.67-.99-4.15,0-1.38.27-2.57.8-3.58.53-1.01,1.23-1.83,2.1-2.48s1.83-1.13,2.86-1.45,2.05-.48,3.06-.48c1.69,0,3.14.4,4.35,1.19,1.2.79,2.13,1.81,2.76,3.06s.95,2.57.95,3.97c0,1.62-.4,3.04-1.21,4.27-.81,1.23-1.87,2.18-3.2,2.86-1.33.68-2.77,1.01-4.33,1.01ZM251.65,516.96c1.06,0,1.85-.52,2.38-1.55.53-1.03.79-2.49.79-4.37s-.24-3.55-.73-4.85c-.49-1.3-1.12-2.28-1.89-2.94-.77-.66-1.58-.99-2.42-.99-1.03,0-1.82.46-2.36,1.39-.54.93-.81,2.36-.81,4.29,0,1.8.23,3.38.68,4.75s1.06,2.42,1.83,3.16c.77.74,1.62,1.11,2.54,1.11Z"/>
      <path class="st0" d="M269.4,517.24l-6.08-12c-.58-1.19-1.09-1.96-1.51-2.3s-.93-.52-1.51-.52c-.08,0-.12-.08-.12-.24s.04-.24.12-.24c.45,0,.96.01,1.53.04.57.03,1.34.04,2.32.04s1.82-.01,2.52-.04,1.34-.04,1.93-.04c.08,0,.12.08.12.24s-.04.24-.12.24c-.66,0-1.21.11-1.65.32-.44.21-.48.62-.14,1.23l4.93,8.9-2.03,3.54,4.33-10.45,1.11.04-4.89,11.24c-.03.11-.17.16-.42.16s-.4-.05-.46-.16ZM279.18,517.24l-6.08-12c-.58-1.14-1.03-1.89-1.35-2.26-.32-.37-.73-.56-1.23-.56-.05,0-.08-.08-.08-.24s.03-.24.08-.24c.4,0,.85.01,1.35.04.5.03,1.19.04,2.07.04.98,0,1.82-.01,2.52-.04s1.34-.04,1.93-.04c.05,0,.08.08.08.24s-.03.24-.08.24c-.66,0-1.17.13-1.51.4s-.38.65-.12,1.15l4.73,8.9-1.99,3.54,4.33-10.45c.45-1.09.45-1.95,0-2.58-.45-.64-1.19-.95-2.22-.95-.08,0-.12-.08-.12-.24s.04-.24.12-.24c.61,0,1.2.01,1.77.04s1.31.04,2.21.04c.66,0,1.19-.01,1.59-.04.4-.03.89-.04,1.47-.04.08,0,.12.08.12.24s-.04.24-.12.24c-.74,0-1.41.28-2.01.85-.6.57-1.16,1.48-1.69,2.72l-4.89,11.24c-.03.11-.17.16-.42.16s-.4-.05-.46-.16Z"/>
      <path class="st0" d="M290.62,513.07c.93,0,1.65.31,2.17.93.52.62.77,1.6.77,2.92,0,1.46-.35,2.83-1.05,4.11-.7,1.28-1.68,2.54-2.92,3.75-.1.08-.2.08-.28,0-.08-.08-.09-.17-.04-.28.77-.93,1.28-1.83,1.53-2.7.25-.87.38-1.8.38-2.78,0-.8-.07-1.36-.22-1.71-.15-.34-.35-.62-.62-.83l1.47-.28c.03.45-.11.8-.4,1.03-.29.24-.69.36-1.19.36-.69,0-1.23-.21-1.61-.62-.39-.41-.58-.95-.58-1.61,0-.74.24-1.31.71-1.71.48-.4,1.1-.6,1.87-.6Z"/>
      <path class="st0" d="M307.06,517.28c-.08,0-.12-.08-.12-.24s.04-.24.12-.24c.82,0,1.38-.19,1.67-.58s.44-1.11.44-2.17v-7.47c0-.82-.09-1.42-.28-1.81-.19-.38-.5-.58-.95-.58-.24,0-.52.05-.83.14-.32.09-.68.23-1.07.42-.11.05-.19,0-.24-.16-.05-.16-.05-.25,0-.28l5.52-2.7c.16-.05.25-.08.28-.08.29,0,.58.32.87.95.29.64.44,1.55.44,2.74v8.82c0,.69.11,1.24.32,1.65.21.41.58.69,1.09.85s1.22.24,2.13.24c.11,0,.16.08.16.24s-.05.24-.16.24c-.71,0-1.53-.01-2.44-.04-.91-.03-1.9-.04-2.96-.04-.74,0-1.46.01-2.14.04-.69.03-1.3.04-1.83.04ZM311.91,506.52l-.32-.52c1.03-1.19,1.91-2.11,2.62-2.74.72-.64,1.32-1.08,1.83-1.33.5-.25.95-.38,1.35-.38.56,0,1.13.21,1.73.62.6.41.89.95.89,1.61,0,.56-.17,1.01-.5,1.37-.33.36-.79.54-1.37.54s-.97-.15-1.25-.44c-.28-.29-.53-.58-.75-.85-.23-.28-.55-.42-.97-.42-.19,0-.39.06-.62.18-.23.12-.54.36-.95.72-.41.36-.97.91-1.69,1.65Z"/>
      <path class="st0" d="M329.82,517.76c-1.72,0-3.18-.36-4.39-1.07-1.21-.72-2.12-1.66-2.74-2.84-.62-1.18-.93-2.44-.93-3.79,0-1.56.38-2.98,1.15-4.25.77-1.27,1.83-2.29,3.18-3.06s2.9-1.15,4.65-1.15c1.56,0,2.81.36,3.75,1.07.94.71,1.41,1.88,1.41,3.5,0,.34-.03.64-.08.87-.05.24-.17.36-.36.36h-3.81c.05-1.51-.09-2.72-.44-3.63-.34-.91-1.01-1.37-1.99-1.37-1.06,0-1.9.54-2.52,1.63-.62,1.09-.93,2.53-.93,4.33,0,1.54.24,2.86.71,3.97.48,1.11,1.18,1.97,2.11,2.58s2.07.91,3.42.91c.79,0,1.46-.1,2.01-.3s1.15-.47,1.81-.81c.05-.05.13-.03.22.08s.11.2.06.28c-.98.98-1.98,1.68-3,2.09-1.02.41-2.11.62-3.28.62ZM324.38,507.43l-.04-.75,8.7-.16v.87l-8.66.04Z"/>
      <path class="st0" d="M338.56,517.28c-.11,0-.16-.08-.16-.24s.05-.24.16-.24c1.01,0,1.65-.17,1.95-.52s.44-1.09.44-2.22v-8.94c0-.58-.08-1.01-.24-1.29s-.42-.46-.79-.56c-.37-.09-.87-.14-1.51-.14-.08,0-.12-.12-.12-.36s.04-.36.12-.36c.93,0,1.56-.13,1.91-.38s.53-.71.56-1.37c.13-4.4.96-7.53,2.48-9.41,1.52-1.88,3.79-2.82,6.81-2.82,1.48,0,2.71.2,3.69.6.98.4,1.76.86,2.34,1.39l-2.62,2.66c-.53-1.16-1.2-2.11-2.01-2.84-.81-.73-1.65-1.09-2.52-1.09s-1.6.36-2.26,1.07c-.66.72-1.18,1.85-1.55,3.42-.37,1.56-.56,3.63-.56,6.2v14.22c0,.77.08,1.35.24,1.75.16.4.49.66.99.79s1.27.2,2.3.2c.11,0,.16.08.16.24s-.05.24-.16.24c-.93,0-1.83-.01-2.72-.04-.89-.03-1.79-.04-2.72-.04-.77,0-1.52.01-2.24.04-.73.03-1.39.04-1.97.04ZM348.93,503.98c-1.03-.24-2.02-.4-2.96-.5-.94-.09-1.94-.14-3-.14v-1.03c1.01,0,2-.04,2.98-.12.98-.08,2.01-.17,3.1-.28.08,0,.15.1.2.3.05.2.08.42.08.65,0,.27-.05.52-.14.77-.09.25-.18.36-.26.34ZM351.07,517.28c-.08,0-.12-.08-.12-.24s.04-.24.12-.24c.79,0,1.34-.19,1.65-.58.31-.38.46-1.11.46-2.17v-22.76c.69,0,1.28-.17,1.77-.5.49-.33.86-.73,1.11-1.21.25-.48.38-.93.38-1.35,0-.08.08-.12.24-.12s.24.04.24.12v25.82c0,1.06.15,1.78.46,2.17.3.38.87.58,1.69.58.08,0,.12.08.12.24s-.04.24-.12.24c-.53,0-1.14-.01-1.83-.04-.69-.03-1.43-.04-2.22-.04-.74,0-1.45.01-2.13.04-.68.03-1.28.04-1.81.04Z"/>
      <path class="st0" d="M369.74,517.76c-1.72,0-3.18-.36-4.39-1.07-1.21-.72-2.12-1.66-2.74-2.84-.62-1.18-.93-2.44-.93-3.79,0-1.56.38-2.98,1.15-4.25.77-1.27,1.83-2.29,3.18-3.06s2.9-1.15,4.65-1.15c1.56,0,2.81.36,3.75,1.07.94.71,1.41,1.88,1.41,3.5,0,.34-.03.64-.08.87-.05.24-.17.36-.36.36h-3.81c.05-1.51-.09-2.72-.44-3.63-.34-.91-1.01-1.37-1.99-1.37-1.06,0-1.9.54-2.52,1.63-.62,1.09-.93,2.53-.93,4.33,0,1.54.24,2.86.71,3.97.48,1.11,1.18,1.97,2.11,2.58s2.07.91,3.42.91c.79,0,1.46-.1,2.01-.3s1.15-.47,1.81-.81c.05-.05.13-.03.22.08s.11.2.06.28c-.98.98-1.98,1.68-3,2.09-1.02.41-2.11.62-3.28.62ZM364.3,507.43l-.04-.75,8.7-.16v.87l-8.66.04Z"/>
      <path class="st0" d="M386.47,517.76c-1.83,0-3.34-.39-4.53-1.17-1.19-.78-2.07-1.78-2.64-3-.57-1.22-.85-2.45-.85-3.69,0-1.32.28-2.5.84-3.54.56-1.03,1.29-1.9,2.2-2.6s1.93-1.24,3.04-1.61c1.11-.37,2.21-.56,3.3-.56.77,0,1.54.11,2.3.34.77.23,1.4.56,1.91.99.5.44.76.99.76,1.65,0,.45-.19.87-.56,1.25-.37.39-.91.58-1.63.58-.66,0-1.18-.17-1.55-.52-.37-.34-.66-.85-.87-1.51-.19-.64-.39-1.12-.62-1.45s-.66-.5-1.29-.5c-1.14,0-2.05.57-2.72,1.71-.68,1.14-1.01,2.62-1.01,4.45,0,1.32.2,2.54.6,3.63.4,1.1,1.05,1.97,1.95,2.62s2.11.97,3.62.97c.79,0,1.46-.09,2.01-.28.54-.19,1.15-.44,1.81-.75.05-.05.13-.03.22.08.09.11.11.19.06.24-.93.85-1.88,1.5-2.86,1.97-.98.46-2.13.69-3.46.69Z"/>
      <path class="st0" d="M401.76,517.76c-.64,0-1.28-.11-1.93-.32-.65-.21-1.19-.58-1.63-1.11-.44-.53-.65-1.27-.65-2.22v-8.82c0-.56-.07-.99-.2-1.31s-.35-.54-.64-.68c-.29-.13-.69-.2-1.19-.2-.11,0-.16-.12-.16-.36s.05-.36.16-.36c1.35-.05,2.45-.35,3.3-.89s1.48-1.34,1.91-2.4c.05-.11.16-.16.34-.16s.26.05.26.16v13.7c0,1.06.27,1.81.81,2.26s1.21.68,2.01.68c.61,0,1.18-.13,1.73-.38s1-.52,1.37-.81c.08-.08.18-.06.3.06.12.12.13.22.02.3-.98.98-1.93,1.7-2.84,2.17-.91.46-1.9.69-2.96.69ZM406.33,503.98c-1.09-.24-2.14-.4-3.16-.5-1.02-.09-2.1-.14-3.24-.14v-1.03c1.09,0,2.15-.04,3.2-.12,1.05-.08,2.17-.17,3.36-.28.05,0,.11.1.18.3s.1.42.1.65c0,.27-.05.52-.14.77-.09.25-.19.36-.3.34Z"/>
      <path class="st0" d="M412.21,513.07c.93,0,1.65.31,2.17.93.52.62.77,1.6.77,2.92,0,1.46-.35,2.83-1.05,4.11-.7,1.28-1.68,2.54-2.92,3.75-.1.08-.2.08-.28,0-.08-.08-.09-.17-.04-.28.77-.93,1.28-1.83,1.53-2.7.25-.87.38-1.8.38-2.78,0-.8-.07-1.36-.22-1.71-.15-.34-.35-.62-.62-.83l1.47-.28c.03.45-.11.8-.4,1.03-.29.24-.69.36-1.19.36-.69,0-1.23-.21-1.61-.62-.39-.41-.58-.95-.58-1.61,0-.74.24-1.31.71-1.71.48-.4,1.1-.6,1.87-.6Z"/>
      <path class="st0" d="M432.15,517.56c-1.17,0-2.03-.26-2.6-.77-.57-.52-.85-1.21-.85-2.09s.24-1.54.71-2.01c.48-.46,1.1-.83,1.87-1.11.77-.28,1.56-.56,2.38-.85l3.97-1.47.16.6-2.26,1.03c-.21.08-.52.21-.91.38-.4.17-.76.42-1.07.76s-.48.8-.48,1.41c0,.69.22,1.2.68,1.53.45.33.9.5,1.35.5.21,0,.42-.03.62-.08.2-.05.43-.17.69-.36l1.99-1.35.04.64-2.78,1.99c-.58.45-1.14.77-1.67.97-.53.2-1.14.3-1.83.3ZM439.77,517.52c-.11.05-.24.08-.4.08-.48,0-.95-.32-1.43-.95s-.72-1.55-.72-2.74v-6.75c0-1.67-.13-2.89-.4-3.67-.27-.78-.74-1.17-1.43-1.17s-1.16.2-1.49.62c-.33.41-.56.87-.68,1.37s-.19.93-.22,1.27c-.08.82-.32,1.4-.72,1.73-.4.33-.93.5-1.59.5s-1.18-.15-1.47-.44-.44-.65-.44-1.07c0-.64.28-1.24.85-1.81.57-.57,1.29-1.07,2.17-1.51.87-.44,1.78-.78,2.72-1.03.94-.25,1.77-.38,2.48-.38,1.09,0,2.01.35,2.78,1.03.77.69,1.15,1.81,1.15,3.38v7.03c0,.77.14,1.36.42,1.79s.67.64,1.17.64c.37,0,.75-.09,1.15-.28.1-.05.19,0,.26.14.06.15.03.25-.1.3l-4.09,1.95Z"/>
      <path class="st0" d="M445.77,517.28c-.08,0-.12-.08-.12-.24s.04-.24.12-.24c.82,0,1.38-.19,1.67-.58s.44-1.11.44-2.17v-7.47c0-.82-.09-1.42-.28-1.81-.19-.38-.5-.58-.95-.58-.24,0-.52.05-.83.14-.32.09-.68.23-1.07.42-.11.05-.19,0-.24-.16-.05-.16-.05-.25,0-.28l5.52-2.7c.16-.05.25-.08.28-.08.29,0,.58.32.87.95.29.64.44,1.55.44,2.74v8.82c0,1.06.15,1.78.46,2.17.3.38.87.58,1.69.58.08,0,.12.08.12.24s-.04.24-.12.24c-.53,0-1.14-.01-1.83-.04-.69-.03-1.42-.04-2.18-.04s-1.46.01-2.14.04c-.69.03-1.3.04-1.83.04ZM456.46,517.28c-.08,0-.12-.08-.12-.24s.04-.24.12-.24c.82,0,1.38-.19,1.67-.58.29-.38.44-1.11.44-2.17v-5.72c0-1.43-.26-2.49-.77-3.18s-1.33-1.03-2.44-1.03c-.79,0-1.61.2-2.44.6-.83.4-1.5.94-2.01,1.63l-.2-.48c.93-1.32,1.97-2.39,3.14-3.2s2.44-1.21,3.81-1.21c1.48,0,2.63.46,3.44,1.39.81.93,1.21,2.12,1.21,3.58v7.63c0,1.06.15,1.78.46,2.17.3.38.87.58,1.69.58.08,0,.12.08.12.24s-.04.24-.12.24c-.53,0-1.14-.01-1.83-.04-.69-.03-1.42-.04-2.18-.04s-1.46.01-2.14.04c-.69.03-1.3.04-1.83.04Z"/>
      <path class="st0" d="M473.02,517.8c-1.14,0-2.18-.31-3.12-.91-.94-.61-1.7-1.49-2.26-2.64-.57-1.15-.85-2.55-.85-4.19s.29-2.97.87-4.07c.58-1.1,1.33-1.98,2.25-2.64.91-.66,1.9-1.15,2.96-1.45,1.06-.31,2.07-.46,3.02-.46s1.84.12,2.66.36c.82.24,1.56.53,2.22.87l-.91,3.22c-.56-1.19-1.19-2.06-1.91-2.6-.71-.54-1.6-.81-2.66-.81-1.35,0-2.42.47-3.22,1.41s-1.19,2.58-1.19,4.91c0,1.51.19,2.8.56,3.85.37,1.06.89,1.87,1.55,2.42.66.56,1.4.83,2.22.83,1.06,0,1.99-.29,2.78-.87.79-.58,1.56-1.28,2.3-2.1l.4.36c-.56.64-1.21,1.3-1.97,2.01-.75.7-1.6,1.3-2.54,1.79-.94.49-1.99.73-3.16.73ZM482.71,489v23.68c0,.9.09,1.54.26,1.91.17.37.46.56.85.56.19,0,.42-.04.69-.12.28-.08.59-.19.93-.32.08-.05.16,0,.24.14.08.15.09.24.04.3l-5.48,2.66c-.08.03-.15.04-.2.04-.27,0-.51-.33-.73-.99-.23-.66-.34-1.6-.34-2.82v-20.14c0-.9-.08-1.56-.24-1.97s-.46-.62-.91-.62c-.19,0-.4.04-.66.12-.25.08-.52.19-.81.32-.11.03-.2-.04-.28-.2-.08-.16-.09-.25-.04-.28l5.84-2.74c.05-.03.11-.04.16-.04.13,0,.28.06.44.18s.24.23.24.34Z"/>
      <path class="st0" d="M497.29,517.56c-.11.03-.19-.02-.24-.14-.05-.12-.03-.19.08-.22.61-.37,1.09-.87,1.43-1.49s.52-1.46.52-2.52v-19.3c0-.9-.09-1.56-.26-1.97-.17-.41-.48-.62-.93-.62-.34,0-.83.15-1.47.44-.11.03-.19-.04-.26-.2-.07-.16-.07-.25-.02-.28l5.8-2.74c.08-.03.15-.04.2-.04.13,0,.27.06.42.18.15.12.22.23.22.34v26.06l-5.48,2.5ZM506.51,517.8c-1.14,0-2.25-.21-3.34-.62-1.09-.41-2.07-1.01-2.94-1.81l2.54-4.65c0,1.56.27,2.81.79,3.73.53.93,1.17,1.58,1.91,1.97s1.4.58,1.99.58c1.17,0,2.05-.58,2.64-1.75.6-1.17.89-2.79.89-4.89,0-2.38-.4-4.12-1.19-5.2-.79-1.09-1.85-1.63-3.18-1.63-.82,0-1.6.17-2.34.52-.74.35-1.42.76-2.03,1.23l-.36-.32c.56-.56,1.14-1.11,1.77-1.65s1.33-.99,2.13-1.35,1.69-.54,2.7-.54c1.17,0,2.24.27,3.24.81.99.54,1.8,1.36,2.42,2.44.62,1.09.93,2.46.93,4.13,0,1.99-.42,3.65-1.25,4.99-.83,1.34-1.9,2.34-3.2,3-1.3.66-2.68.99-4.13.99Z"/>
      <path class="st0" d="M526.09,517.76c-1.72,0-3.18-.36-4.39-1.07-1.21-.72-2.12-1.66-2.74-2.84-.62-1.18-.93-2.44-.93-3.79,0-1.56.38-2.98,1.15-4.25.77-1.27,1.83-2.29,3.18-3.06s2.9-1.15,4.65-1.15c1.56,0,2.81.36,3.75,1.07.94.71,1.41,1.88,1.41,3.5,0,.34-.03.64-.08.87-.05.24-.17.36-.36.36h-3.81c.05-1.51-.09-2.72-.44-3.63-.34-.91-1.01-1.37-1.99-1.37-1.06,0-1.9.54-2.52,1.63-.62,1.09-.93,2.53-.93,4.33,0,1.54.24,2.86.71,3.97.48,1.11,1.18,1.97,2.11,2.58s2.07.91,3.42.91c.79,0,1.46-.1,2.01-.3s1.15-.47,1.81-.81c.05-.05.13-.03.22.08s.11.2.06.28c-.98.98-1.98,1.68-3,2.09-1.02.41-2.11.62-3.28.62ZM520.65,507.43l-.04-.75,8.7-.16v.87l-8.66.04Z"/>
      <path class="st0" d="M560.97,501.95c.05,0,.08.08.08.24s-.03.24-.08.24c-.9,0-1.65.38-2.26,1.15-.61.77-1.15,1.8-1.63,3.1l-4.41,11.72c-.95,2.54-1.87,4.55-2.76,6.02-.89,1.47-1.78,2.51-2.68,3.12-.9.61-1.85.91-2.86.91-.77,0-1.37-.17-1.81-.5-.44-.33-.66-.81-.66-1.45s.19-1.1.58-1.41c.38-.3.83-.46,1.33-.46.45,0,.81.09,1.07.26.26.17.53.34.79.52.26.17.61.26,1.03.26.64,0,1.22-.27,1.75-.81.53-.54,1.1-1.47,1.71-2.78.61-1.31,1.32-3.1,2.15-5.38l-.12,2.18-6.75-13.63c-.58-1.16-1.04-1.93-1.37-2.28-.33-.36-.73-.54-1.21-.54-.08,0-.12-.08-.12-.24s.04-.24.12-.24c.53,0,1.09.01,1.69.04.6.03,1.16.04,1.69.04.95,0,1.79-.01,2.5-.04.71-.03,1.36-.04,1.95-.04.08,0,.12.08.12.24s-.04.24-.12.24c-.93,0-1.52.11-1.79.32-.27.21-.25.62.04,1.23l5.04,10.33-1.43,2.34,3.46-10.01c.45-1.3.48-2.32.1-3.08-.39-.76-1.12-1.13-2.21-1.13-.05,0-.08-.08-.08-.24s.02-.24.08-.24c.64,0,1.24.01,1.81.04.57.03,1.3.04,2.2.04.64,0,1.16-.01,1.57-.04.41-.03.91-.04,1.49-.04Z"/>
      <path class="st0" d="M570.22,517.8c-1.67,0-3.11-.38-4.33-1.15s-2.16-1.79-2.82-3.08c-.66-1.28-.99-2.67-.99-4.15,0-1.38.27-2.57.8-3.58.53-1.01,1.23-1.83,2.1-2.48s1.83-1.13,2.86-1.45,2.05-.48,3.06-.48c1.69,0,3.14.4,4.35,1.19,1.2.79,2.13,1.81,2.76,3.06s.95,2.57.95,3.97c0,1.62-.4,3.04-1.21,4.27-.81,1.23-1.87,2.18-3.2,2.86-1.33.68-2.77,1.01-4.33,1.01ZM571.41,516.96c1.06,0,1.85-.52,2.38-1.55.53-1.03.79-2.49.79-4.37s-.24-3.55-.73-4.85c-.49-1.3-1.12-2.28-1.89-2.94-.77-.66-1.58-.99-2.42-.99-1.03,0-1.82.46-2.36,1.39-.54.93-.81,2.36-.81,4.29,0,1.8.23,3.38.68,4.75s1.06,2.42,1.83,3.16c.77.74,1.62,1.11,2.54,1.11Z"/>
      <path class="st0" d="M588.26,517.76c-1.46,0-2.6-.46-3.44-1.39s-1.25-2.12-1.25-3.57v-5.84c0-.87-.1-1.52-.3-1.95s-.51-.64-.93-.64c-.29,0-.62.09-.99.28-.11.03-.19-.04-.26-.2-.07-.16-.06-.25.02-.28l5.32-2.54c.08-.03.15-.04.2-.04.13,0,.27.06.42.18.15.12.22.23.22.34v8.78c0,1.43.27,2.5.81,3.22s1.37,1.07,2.48,1.07c.77,0,1.54-.22,2.3-.65.77-.44,1.38-.99,1.83-1.65l.24.48c-.9,1.3-1.91,2.36-3.02,3.18-1.11.82-2.33,1.23-3.65,1.23ZM597.63,502.11v10.57c0,.9.09,1.54.26,1.91.17.37.46.56.85.56.19,0,.42-.04.69-.12.28-.08.59-.19.93-.32.11-.05.2,0,.28.14.08.15.08.24,0,.3l-5.48,2.66c-.05.03-.12.04-.2.04-.27,0-.5-.33-.72-.99-.21-.66-.32-1.6-.32-2.82v-7.07c0-.87-.1-1.52-.3-1.95-.2-.42-.51-.64-.93-.64-.29,0-.64.09-1.03.28-.08.03-.15-.04-.22-.2s-.06-.25.02-.28l5.32-2.54c.05-.03.12-.04.2-.04.13,0,.27.06.42.18.15.12.22.23.22.34Z"/>
      <path class="st0" d="M602.64,517.28c-.08,0-.12-.08-.12-.24s.04-.24.12-.24c.82,0,1.38-.19,1.67-.58s.44-1.11.44-2.17v-7.47c0-.82-.09-1.42-.28-1.81-.19-.38-.5-.58-.95-.58-.24,0-.52.05-.83.14-.32.09-.68.23-1.07.42-.11.05-.19,0-.24-.16-.05-.16-.05-.25,0-.28l5.52-2.7c.16-.05.25-.08.28-.08.29,0,.58.32.87.95.29.64.44,1.55.44,2.74v8.82c0,.69.11,1.24.32,1.65.21.41.58.69,1.09.85s1.22.24,2.13.24c.11,0,.16.08.16.24s-.05.24-.16.24c-.71,0-1.53-.01-2.44-.04-.91-.03-1.9-.04-2.96-.04-.74,0-1.46.01-2.14.04-.69.03-1.3.04-1.83.04ZM607.48,506.52l-.32-.52c1.03-1.19,1.91-2.11,2.62-2.74.72-.64,1.32-1.08,1.83-1.33.5-.25.95-.38,1.35-.38.56,0,1.13.21,1.73.62.6.41.89.95.89,1.61,0,.56-.17,1.01-.5,1.37-.33.36-.79.54-1.37.54s-.97-.15-1.25-.44c-.28-.29-.53-.58-.75-.85-.23-.28-.55-.42-.97-.42-.19,0-.39.06-.62.18-.23.12-.54.36-.95.72-.41.36-.97.91-1.69,1.65Z"/>
      <path class="st0" d="M633.54,517.76c-.64,0-1.28-.11-1.93-.32-.65-.21-1.19-.58-1.63-1.11-.44-.53-.65-1.27-.65-2.22v-8.82c0-.56-.07-.99-.2-1.31s-.35-.54-.64-.68c-.29-.13-.69-.2-1.19-.2-.11,0-.16-.12-.16-.36s.05-.36.16-.36c1.35-.05,2.45-.35,3.3-.89s1.48-1.34,1.91-2.4c.05-.11.16-.16.34-.16s.26.05.26.16v13.7c0,1.06.27,1.81.81,2.26s1.21.68,2.01.68c.61,0,1.18-.13,1.73-.38s1-.52,1.37-.81c.08-.08.18-.06.3.06.12.12.13.22.02.3-.98.98-1.93,1.7-2.84,2.17-.91.46-1.9.69-2.96.69ZM638.11,503.98c-1.09-.24-2.14-.4-3.16-.5-1.02-.09-2.1-.14-3.24-.14v-1.03c1.09,0,2.15-.04,3.2-.12,1.05-.08,2.17-.17,3.36-.28.05,0,.11.1.18.3s.1.42.1.65c0,.27-.05.52-.14.77-.09.25-.19.36-.3.34Z"/>
      <path class="st0" d="M641.53,517.28c-.08,0-.12-.08-.12-.24s.04-.24.12-.24c.82,0,1.38-.19,1.67-.58s.44-1.11.44-2.17v-7.47c0-.82-.09-1.42-.28-1.81-.19-.38-.5-.58-.95-.58-.24,0-.52.05-.83.14-.32.09-.68.23-1.07.42-.11.05-.19,0-.24-.16-.05-.16-.05-.25,0-.28l5.52-2.7c.16-.05.25-.08.28-.08.29,0,.58.32.87.95.29.64.44,1.55.44,2.74v8.82c0,.69.11,1.24.32,1.65.21.41.58.69,1.09.85s1.22.24,2.13.24c.11,0,.16.08.16.24s-.05.24-.16.24c-.71,0-1.53-.01-2.44-.04-.91-.03-1.9-.04-2.96-.04-.74,0-1.46.01-2.14.04-.69.03-1.3.04-1.83.04ZM646.37,506.52l-.32-.52c1.03-1.19,1.91-2.11,2.62-2.74.72-.64,1.32-1.08,1.83-1.33.5-.25.95-.38,1.35-.38.56,0,1.13.21,1.73.62.6.41.89.95.89,1.61,0,.56-.17,1.01-.5,1.37-.33.36-.79.54-1.37.54s-.97-.15-1.25-.44c-.28-.29-.53-.58-.75-.85-.23-.28-.55-.42-.97-.42-.19,0-.39.06-.62.18-.23.12-.54.36-.95.72-.41.36-.97.91-1.69,1.65Z"/>
      <path class="st0" d="M663.06,517.76c-1.46,0-2.6-.46-3.44-1.39s-1.25-2.12-1.25-3.57v-5.84c0-.87-.1-1.52-.3-1.95s-.51-.64-.93-.64c-.29,0-.62.09-.99.28-.11.03-.19-.04-.26-.2-.07-.16-.06-.25.02-.28l5.32-2.54c.08-.03.15-.04.2-.04.13,0,.27.06.42.18.15.12.22.23.22.34v8.78c0,1.43.27,2.5.81,3.22s1.37,1.07,2.48,1.07c.77,0,1.54-.22,2.3-.65.77-.44,1.38-.99,1.83-1.65l.24.48c-.9,1.3-1.91,2.36-3.02,3.18-1.11.82-2.33,1.23-3.65,1.23ZM672.43,502.11v10.57c0,.9.09,1.54.26,1.91.17.37.46.56.85.56.19,0,.42-.04.69-.12.28-.08.59-.19.93-.32.11-.05.2,0,.28.14.08.15.08.24,0,.3l-5.48,2.66c-.05.03-.12.04-.2.04-.27,0-.5-.33-.72-.99-.21-.66-.32-1.6-.32-2.82v-7.07c0-.87-.1-1.52-.3-1.95-.2-.42-.51-.64-.93-.64-.29,0-.64.09-1.03.28-.08.03-.15-.04-.22-.2s-.06-.25.02-.28l5.32-2.54c.05-.03.12-.04.2-.04.13,0,.27.06.42.18.15.12.22.23.22.34Z"/>
      <path class="st0" d="M685.22,517.76c-1.72,0-3.18-.36-4.39-1.07-1.21-.72-2.12-1.66-2.74-2.84-.62-1.18-.93-2.44-.93-3.79,0-1.56.38-2.98,1.15-4.25.77-1.27,1.83-2.29,3.18-3.06s2.9-1.15,4.65-1.15c1.56,0,2.81.36,3.75,1.07.94.71,1.41,1.88,1.41,3.5,0,.34-.03.64-.08.87-.05.24-.17.36-.36.36h-3.81c.05-1.51-.09-2.72-.44-3.63-.34-.91-1.01-1.37-1.99-1.37-1.06,0-1.9.54-2.52,1.63-.62,1.09-.93,2.53-.93,4.33,0,1.54.24,2.86.71,3.97.48,1.11,1.18,1.97,2.11,2.58s2.07.91,3.42.91c.79,0,1.46-.1,2.01-.3s1.15-.47,1.81-.81c.05-.05.13-.03.22.08s.11.2.06.28c-.98.98-1.98,1.68-3,2.09-1.02.41-2.11.62-3.28.62ZM679.78,507.43l-.04-.75,8.7-.16v.87l-8.66.04Z"/>
      <path class="st0" d="M707.27,503.86c0,.56.15,1.05.46,1.49.3.44.69.83,1.17,1.19.48.36.99.71,1.55,1.05.66.37,1.31.76,1.95,1.17s1.17.91,1.59,1.49c.42.58.64,1.34.64,2.26,0,.85-.22,1.68-.66,2.48-.44.81-1.09,1.46-1.97,1.97s-1.97.75-3.3.75c-.66,0-1.32-.07-1.99-.22-.66-.15-1.38-.43-2.15-.85-.05-.05-.11-.12-.16-.2-.05-.08-.08-.17-.08-.28l-.08-3.93c0-.08.07-.13.22-.14.15-.01.23,0,.26.06.29.85.7,1.64,1.23,2.36.53.73,1.13,1.31,1.81,1.75.68.44,1.36.66,2.05.66.53,0,.97-.16,1.31-.5s.52-.84.52-1.53c0-.74-.17-1.36-.5-1.85-.33-.49-.75-.91-1.25-1.27-.5-.36-1.02-.68-1.55-.97-.61-.34-1.22-.7-1.83-1.07-.61-.37-1.11-.84-1.51-1.41-.4-.57-.6-1.32-.6-2.25,0-1.11.28-2,.83-2.66.56-.66,1.28-1.14,2.17-1.43.89-.29,1.81-.44,2.76-.44.58,0,1.12.04,1.61.12.49.08,1.05.24,1.69.48.24.08.36.23.36.44,0,.53-.01,1.08-.04,1.65-.03.57-.04,1.2-.04,1.89,0,.08-.08.12-.24.12s-.24-.04-.24-.12c0-.5-.21-1.05-.62-1.63-.41-.58-.95-1.09-1.61-1.53-.66-.44-1.38-.65-2.14-.65-.37,0-.74.09-1.09.28-.36.19-.54.61-.54,1.27Z"/>
      <path class="st0" d="M725.7,517.76c-1.72,0-3.18-.36-4.39-1.07-1.21-.72-2.12-1.66-2.74-2.84-.62-1.18-.93-2.44-.93-3.79,0-1.56.38-2.98,1.15-4.25.77-1.27,1.83-2.29,3.18-3.06s2.9-1.15,4.65-1.15c1.56,0,2.81.36,3.75,1.07.94.71,1.41,1.88,1.41,3.5,0,.34-.03.64-.08.87-.05.24-.17.36-.36.36h-3.81c.05-1.51-.09-2.72-.44-3.63-.34-.91-1.01-1.37-1.99-1.37-1.06,0-1.9.54-2.52,1.63-.62,1.09-.93,2.53-.93,4.33,0,1.54.24,2.86.71,3.97.48,1.11,1.18,1.97,2.11,2.58s2.07.91,3.42.91c.79,0,1.46-.1,2.01-.3s1.15-.47,1.81-.81c.05-.05.13-.03.22.08s.11.2.06.28c-.98.98-1.98,1.68-3,2.09-1.02.41-2.11.62-3.28.62ZM720.26,507.43l-.04-.75,8.7-.16v.87l-8.66.04Z"/>
      <path class="st0" d="M734.75,517.28c-.05,0-.08-.08-.08-.24s.03-.24.08-.24c.82,0,1.38-.19,1.69-.58.31-.38.46-1.11.46-2.17l.04-20.18c0-.9-.08-1.56-.24-1.97s-.46-.62-.91-.62c-.35,0-.85.15-1.51.44-.08.03-.16-.04-.24-.2s-.09-.25-.04-.28l5.84-2.74c.05-.03.1-.04.16-.04.13,0,.28.06.44.18s.24.23.24.34v25.07c0,1.06.15,1.78.44,2.17s.85.58,1.67.58c.11,0,.16.08.16.24s-.05.24-.16.24c-.5,0-1.11-.01-1.81-.04-.7-.03-1.44-.04-2.2-.04s-1.5.01-2.18.04c-.69.03-1.3.04-1.83.04Z"/>
      <path class="st0" d="M745.48,517.28c-.11,0-.16-.08-.16-.24s.05-.24.16-.24c1.01,0,1.65-.17,1.95-.52s.44-1.09.44-2.22v-8.94c0-.58-.08-1.01-.24-1.29s-.42-.46-.79-.56c-.37-.09-.87-.14-1.51-.14-.08,0-.12-.12-.12-.36s.04-.36.12-.36c.93,0,1.56-.13,1.91-.38s.53-.71.56-1.37c.13-4.4.97-7.53,2.5-9.41,1.54-1.88,3.8-2.82,6.79-2.82,1.48,0,2.63.2,3.46.6.82.4,1.23.98,1.23,1.75,0,.64-.21,1.12-.64,1.45s-.89.5-1.39.5c-.72,0-1.21-.18-1.49-.54-.28-.36-.51-.75-.7-1.17-.19-.42-.4-.81-.65-1.15-.25-.34-.71-.52-1.37-.52-1.14,0-2.08.81-2.82,2.42-.74,1.62-1.11,4.3-1.11,8.06v14.22c0,.77.08,1.35.24,1.75.16.4.49.66.99.79s1.27.2,2.3.2c.11,0,.16.08.16.24s-.05.24-.16.24c-.93,0-1.83-.01-2.72-.04-.89-.03-1.79-.04-2.72-.04-.77,0-1.52.01-2.24.04-.73.03-1.39.04-1.97.04ZM755.85,503.98c-1.03-.24-2.02-.4-2.96-.5-.94-.09-1.94-.14-3-.14v-1.03c1.01,0,2-.04,2.98-.12.98-.08,2.01-.17,3.1-.28.08,0,.15.1.2.3.05.2.08.42.08.65,0,.27-.05.52-.14.77-.09.25-.18.36-.26.34Z"/>
    </g>
  </g>
  <g>
    <path class="st0" d="M440.47,185.34c-5.23,5.49-5.54,10.49-5.09,14.32,0,0,3.38-7.16,10.24-12.06,0,0-5.28,5.24-8.57,13.56,0,0,4.45-.51,9.44-3.08,4.99-2.57,7.31-8.12,6.94-13.49-.37-5.37.13-6.48.13-6.48,0,0-7.86,1.74-13.09,7.23Z"/>
    <path class="st0" d="M421.13,231.87s2.66,3.61,7.37,6.66c4.71,3.05,10.68,2.3,15.15-.68,4.48-2.99,5.69-3.11,5.69-3.11,0,0-5.42-5.95-12.78-7.76-7.36-1.81-11.85.41-14.96,2.71,0,0,7.89-.62,15.55,2.89,0,0-7.17-1.97-16.03-.7Z"/>
    <path class="st0" d="M427.85,202.7c.42-7.57-3.69-14.49-3.69-14.49,0,0-.47,1.13-4.63,4.53-4.16,3.41-6.62,8.9-5.08,14.3,1.54,5.39,4.22,8.99,4.22,8.99,3.81-8.1,4.01-15.53,4.01-15.53,1.12,8.35-1.78,15.72-1.78,15.72,3.1-2.3,6.54-5.94,6.96-13.51Z"/>
    <path class="st0" d="M478.2,228.64c3.87,3.36,7.79,6.67,14.97,7.79,8.71,1.32,14.42-3.41,14.42-3.41,0,0-7.69-9.32-16.91-9.68-4.64-.2-8.61.71-11.31,1.63-2.49-.36-5.19-.92-8.4-1.63-9.42-2.09-22.41-4.94-37.49-2.9-7.18,1.02-12.83,2.9-17.21,5.04,4.07-2.34,9.32-4.69,16.04-6.47,5.96-1.63,10.64-1.94,15.18-2.19,9.42-.61,18.44-1.32,37.08-12.02,4.74.1,9.53-.1,15.28-3.46,7.59-4.43,9.01-11.71,9.01-11.71,0,0-11.81-2.39-19.2,3.16-4.33,3.21-7.08,7.13-8.51,9.52-16.1,9.02-24.45,10.03-32.75,10.59,4.23-2.39,9.12-6.06,13.14-11.36l.92-1.22c5.81-7.64,10.24-13.4,14.67-17.37,1.48-.41,4.84-1.12,8.97-1.02,5.6.2,10.34-3.57,12.58-8.46,2.29-4.84,3.26-5.6,3.26-5.6,0,0-8.51-2.85-15.79-.56-7.13,2.29-9.47,6.32-10.9,9.88.77-.61,7.54-5.6,15.18-4.84,0,0-4.18,1.17-9.22,4.28v-.05c-7.18,3.87-12.63,11.1-20.94,22l-.97,1.27c-6.16,8.1-14.67,12.12-18.79,13.7-2.75.31-5.76.81-9.22,1.73-15.69,4.18-24.19,11.21-27.71,14.77-.1.1-.25.15-.41.2-.36.25-.66.56-1.02.86,0-9.32,1.12-26.64,9.02-38.15,4.84-7.13,12.58-13.04,20.27-18.75l.1.21s4.58-1.73,18.9-3.82c10.69-1.58,18.33-7.13,22.05-10.39,1.73-.92,4.74-2.85,8.76-7.08,0,0-1.37,5.14-6.06,8.91-.92.66-1.12,1.02-1.12,1.02,0,0,4.48,1.84,10.44-5.91,5.04-6.47,3.97-14.47,3.97-14.47,0,0-4.28,3.31-12.43,5.45-8.05,2.09-9.73,10.9-10.03,13.45-3.92,2.55-9.32,5.25-15.99,6.26-5.81.81-9.93,1.63-12.94,2.24,8.35-6.16,16.5-12.78,21.34-21.19l.2-.1c.1-.31,2.6-3.57,3.92-12.33,0,0,1.78,5.04.1,10.8-.31,1.07-.31,1.48-.31,1.48,0,0,4.79-1.07,5.2-10.85.36-8.2-5.09-14.11-5.09-14.11,0,0-1.58,5.14-7.03,11.61-5.04,5.96-3.06,12.17-2.09,14.36-5.35,7.64-13.85,13.85-22.1,19.86-1.89,1.43-3.82,2.8-5.71,4.23,1.99-3.51,3.87-7.79,4.84-12.68l.31-1.58c1.84-9.42,3.26-16.5,5.5-22.05,1.17-.97,3.82-3.11,7.59-4.84,5.14-2.29,7.69-7.74,7.59-13.09-.1-5.4.46-6.47.46-6.47,0,0-8.91,1.17-14.42,6.42-5.45,5.24-5.71,9.88-5.45,13.75,0,0,3.92-8.3,11.46-11.1,0,0-3.16,2.9-6.31,7.89l-.05-.05c-4.74,6.67-6.47,15.53-9.11,28.98l-.31,1.58c-1.84,9.37-7.13,16.4-10.24,19.87-.86.81-1.73,1.58-2.6,2.39,1.48-3.97,2.14-7.79,2.39-11.05,1.78-7.18-.05-17.01-.05-17.01,0,0,3.16,4.07,2.55,11.66-.1,1.12.1,1.48.1,1.48,0,0,4.79-3.41,2.55-12.89-1.89-8-8.76-12.17-8.76-12.17,0,0-.1,5.4-3.62,13.09-3.57,7.79,2.8,14.92,4.33,16.45-.46,4.64-1.78,10.54-5.4,16.1-7.23,11.26-9.63,21.09-10.29,27.96-.36-10.29-1.07-20.58-2.44-27.76-1.93-9.98.25-21.34,2.55-32.5,1.73-2.24,4.94-6.16,10.7-12.23,7.54-8,10.08-17.21,10.95-22.05.46-2.04.86-5.19.71-9.83,0,0,2.55,3.46,1.42,10.95-.15,1.12-.05,1.48-.05,1.48,0,0,5.2-2.29,3.77-11.97-1.17-8.1-7.64-12.89-7.64-12.89,0,0-.56,5.35-4.74,12.73-3.62,6.32,0,12.83,1.99,15.64-1.53,4.28-4.13,9.42-8.45,14.01-3.16,3.41-5.55,6.06-7.39,8.2,1.73-8.56,3.21-17.21,2.65-25.21.15-1.73.15-5.3-1.53-11.16,0,0,2.75,2.14,3.67,9.88.1,1.17.31,1.48.31,1.48,0,0,4.69-3.41,1.07-12.43-3-7.64-10.39-10.8-10.39-10.8,0,0,.66,5.35-1.68,13.5-2.7,9.27,4.79,14.57,4.79,14.57l.05-.05c-.16,7.38-1.83,15.33-3.57,23.63-.15.76-.31,1.53-.46,2.29-.05.1-.05.2-.05.26-.31,2.09-.61,3.87-.97,4.64,0,0,0-.1-.05-.31-.15-.81-.36-1.63-.56-2.39h.05v-.05c-.76-2.65-2.6-6.98-7.08-11.61-.2-.2-.41-.41-.61-.61-.2-.2-.41-.41-.61-.56-.15-.15-.26-.25-.31-.31-.1-.05-.16-.1-.16-.1-.81-.92-1.68-1.84-2.65-2.85-4.33-4.58-6.88-9.73-8.41-14.01,1.99-2.8,5.55-9.32,1.99-15.64-4.18-7.39-4.79-12.73-4.79-12.73,0,0-6.42,4.79-7.64,12.89-1.38,9.68,3.77,11.97,3.77,11.97,0,0,.15-.36-.05-1.48-1.07-7.49,1.48-10.95,1.48-10.95-.2,4.64.2,7.79.66,9.83.87,4.79,3.41,14.06,10.95,22.05,1.07,1.12,2.04,2.14,2.96,3.16,0,0,1.43,1.68,2.8,3.56.36.51.71,1.02,1.07,1.53.41.66.81,1.33,1.07,1.89.05.05.05.1.05.15,5.86,11.92,2.34,30.05.86,37.74-.61,3.16-.97,6.77-1.17,10.65-1.58-4.33-3.87-9.12-7.13-14.16-3.56-5.55-4.94-11.46-5.35-16.1,1.48-1.53,7.84-8.66,4.28-16.45-3.46-7.69-3.56-13.09-3.56-13.09,0,0-6.88,4.18-8.76,12.17-2.29,9.47,2.55,12.89,2.55,12.89,0,0,.15-.36.1-1.48-.66-7.59,2.55-11.66,2.55-11.66,0,0-1.83,9.83-.05,17.01.2,3.26.87,7.08,2.35,11.05-.82-.82-1.68-1.58-2.55-2.39-3.16-3.46-8.41-10.49-10.24-19.87l-.31-1.58c-2.65-13.45-4.43-22.31-9.12-28.98l-.05.05c-3.16-4.99-6.37-7.89-6.37-7.89,7.59,2.8,11.51,11.1,11.51,11.1.26-3.87,0-8.51-5.5-13.75-5.5-5.25-14.42-6.42-14.42-6.42,0,0,.56,1.07.46,6.47-.1,5.35,2.49,10.8,7.59,13.09,3.77,1.73,6.47,3.87,7.59,4.84,2.29,5.55,3.67,12.63,5.55,22.05l.31,1.58c.97,4.89,2.8,9.17,4.79,12.68-1.89-1.43-3.77-2.8-5.71-4.23-8.25-6.01-16.71-12.23-22.1-19.86.97-2.19,3-8.41-2.04-14.36-5.5-6.47-7.08-11.61-7.08-11.61,0,0-5.45,5.91-5.09,14.11.46,9.78,5.25,10.85,5.25,10.85,0,0-.05-.41-.36-1.48-1.68-5.76.1-10.8.1-10.8,1.33,8.76,3.87,12.02,3.97,12.33l.2.1c4.84,8.41,12.94,15.03,21.34,21.19-3.01-.61-7.18-1.43-12.94-2.24-6.67-.97-12.07-3.72-15.99-6.26-.36-2.55-2.04-11.36-10.04-13.45-8.2-2.14-12.43-5.45-12.43-5.45,0,0-1.07,8,3.92,14.47,5.96,7.74,10.49,5.91,10.49,5.91,0,0-.25-.36-1.12-1.02-4.69-3.77-6.11-8.91-6.11-8.91,4.02,4.23,7.08,6.16,8.81,7.08,3.67,3.26,11.31,8.81,22.05,10.39,14.31,2.09,18.85,3.82,18.9,3.82,0,0,15.48,11.41,20.37,18.54,7.89,11.51,9.02,28.83,8.96,38.15-.3-.31-.61-.61-1.02-.86-.1-.05-.26-.1-.41-.2-3.51-3.57-12.02-10.6-27.71-14.77-3.41-.92-6.42-1.43-9.22-1.73-4.13-1.58-12.58-5.6-18.74-13.7l-.97-1.27c-8.3-10.9-13.8-18.13-20.93-22l-.05.05c-4.99-3.11-9.17-4.28-9.17-4.28,7.59-.76,14.36,4.23,15.13,4.84-1.38-3.56-3.72-7.59-10.9-9.88-7.23-2.29-15.79.56-15.79.56,0,0,1.02.76,3.26,5.6,2.29,4.89,7.03,8.66,12.63,8.46,4.13-.1,7.49.61,8.91,1.02,4.48,3.97,8.86,9.73,14.67,17.37l.97,1.22c4.02,5.3,8.91,8.96,13.09,11.36-8.25-.56-16.61-1.58-32.7-10.59-1.48-2.39-4.18-6.32-8.56-9.52-7.33-5.55-19.2-3.16-19.2-3.16,0,0,1.42,7.28,9.01,11.71,5.76,3.36,10.6,3.57,15.28,3.46,18.69,10.7,27.71,11.41,37.13,12.02,4.53.26,9.22.56,15.18,2.19,6.72,1.78,11.92,4.13,16.04,6.47-4.38-2.14-10.08-4.02-17.27-5.04-15.08-2.04-28.01.82-37.49,2.9-3.16.71-5.91,1.27-8.36,1.63-2.75-.92-6.72-1.83-11.36-1.63-9.17.36-16.86,9.68-16.86,9.68,0,0,5.71,4.74,14.37,3.41,7.18-1.12,11.15-4.43,14.97-7.79,2.49-.36,5.09-.92,8.05-1.58,3.16-.66,6.62-1.43,10.29-2.04-2.04,1.02-4.08,2.24-5.96,3.77-.81.46-1.53.97-2.19,1.48h-.05v.05c-3.05,2.55-4.63,5.91-6.67,11.41-2.65,7.13-.76,14.93-.76,14.93,0,0,.76-.92,5.76-2.96,4.99-2.04,8.96-6.52,9.06-12.17.15-5.6,1.73-9.68,1.73-9.68,0,0-2.29.66-4.13,2.75-4.07,4.02-6.62,11.05-6.62,11.05-.2-1.68.25-4.07.86-6.52,1.63-3.72,3.97-6.52,4.79-7.44.97-1.07,1.84-1.94,2.44-2.5,6.73-4.28,14.93-5.45,15.08-5.45l-.05-.1c3.97-.15,8.15,0,12.58.61,12.73,1.73,20.32,6.52,24.25,9.93,1.73,4.13,4.18,11.56,4.94,22.46,1.32,17.73-1.02,31.37-3.41,35.25-2.44,3.92-11.2,9.12-19,12.07-7.79,2.9-18.64,2.49-29.19,4.07-10.59,1.63-14.97,4.84-23.68,7.84-10.85,3.67-17.37.76-20.42.25-3.21-.51-1.33,2.75,5.35,3.72,6.67,1.02,13.14.2,21.14-3.41,7.95-3.57,17.37-4.03,22.41-3.57,0,0-5.14,3.21-10.19,9.37-5.04,6.16-8,8.35-12.73,11.46-4.69,3.06-.81,2.75,4.08.46,4.89-2.24,6.01-3.21,13.09-11.26,9.63-10.85,14.06-8.1,24.96-9.88,0,0-7.38,6.37-11.31,13.65-3.92,7.33-5.81,11.56-11.77,16.6-4.99,4.23-11.56,7.49-2.96,5.04,8.1-2.29,11.87-8.15,16.2-15.94-.05,4.03,1.48,10.09-2.45,17.98-2.19,4.38-2.95,7.23,1.07,2.44,4.79-5.81,5.76-14.16,5.19-19.05-.56-4.74.56-8.96.61-9.22,3.06-4.84,6.21-8,13.19-10.34,9.58-3.26,23.73-12.68,23.73-12.68,0,0,1.73,7.49-3.46,15.74-5.25,8.3-10.24,12.38-17.68,18.39-8.76,7.08-13.95,23.58-13.8,25.37.16,1.78.82,2.75,2.6-.81,1.78-3.57,7.13-17.22,18.18-23.89,0,0,3.11,8.61,2.96,13.96-.15,5.35-5.55,12.38-5.4,13.8.2,1.48,3.92-.46,8.3-9.22,4.38-8.81-.46-19.35,2.44-23.43,2.96-4.07,5.71-6.98,8.76-12.84,1.37-2.6,2.49-7.44,3.36-13.24.91,5.81,1.99,10.65,3.36,13.24,3.11,5.86,5.86,8.76,8.76,12.84,2.95,4.08-1.94,14.62,2.44,23.43,4.38,8.76,8.15,10.7,8.3,9.22.15-1.43-5.19-8.46-5.35-13.8-.16-5.35,2.9-13.96,2.9-13.96,11.05,6.67,16.45,20.32,18.23,23.89,1.78,3.56,2.44,2.6,2.6.81.16-1.78-5.04-18.29-13.85-25.37-7.44-6.01-12.43-10.08-17.62-18.39-5.2-8.25-3.46-15.74-3.46-15.74,0,0,14.11,9.42,23.74,12.68,6.93,2.34,10.13,5.5,13.19,10.34.05.25,1.17,4.48.61,9.22-.56,4.89.41,13.24,5.2,19.05,3.97,4.79,3.26,1.94,1.07-2.44-3.92-7.89-2.44-13.96-2.44-17.98,4.28,7.79,8.1,13.65,16.15,15.94,8.61,2.44,2.09-.81-2.9-5.04-5.96-5.04-7.9-9.27-11.77-16.6-3.92-7.28-11.31-13.65-11.31-13.65,10.9,1.78,15.33-.97,24.91,9.88,7.13,8.05,8.25,9.02,13.14,11.26,4.84,2.29,8.76,2.6,4.02-.46-4.69-3.11-7.69-5.3-12.73-11.46-5.04-6.16-10.19-9.37-10.19-9.37,5.04-.46,14.47,0,22.46,3.57,7.95,3.61,14.47,4.43,21.14,3.41,6.67-.97,8.56-4.23,5.35-3.72-3.11.51-9.63,3.41-20.42-.25-8.76-3.01-13.14-6.21-23.69-7.84-10.54-1.58-21.39-1.17-29.19-4.07-7.84-2.96-16.6-8.15-19-12.07-2.39-3.87-4.74-17.52-3.46-35.25.81-10.9,3.26-18.34,4.99-22.46,3.92-3.41,11.51-8.2,24.2-9.93,4.43-.61,8.61-.76,12.58-.61v.1c.1,0,8.3,1.17,15.08,5.45.56.56,1.48,1.43,2.44,2.5.82.92,3.11,3.72,4.74,7.44.66,2.44,1.07,4.84.92,6.52,0,0-2.6-7.03-6.67-11.05-1.78-2.09-4.08-2.75-4.08-2.75,0,0,1.58,4.08,1.68,9.68.15,5.65,4.13,10.13,9.12,12.17,4.94,2.04,5.76,2.96,5.76,2.96,0,0,1.89-7.79-.76-14.93-2.04-5.5-3.62-8.86-6.72-11.41v-.05c-.66-.51-1.43-1.02-2.24-1.48-1.84-1.53-3.87-2.75-5.91-3.77,3.67.61,7.08,1.37,10.24,2.04,3.01.66,5.6,1.22,8.05,1.58ZM394.62,248.25h0s.41-.97.41-.97l-.4.97Z"/>
    <path class="st0" d="M353.89,199.66c.45-3.84.15-8.84-5.09-14.32-5.23-5.49-13.09-7.23-13.09-7.23,0,0,.5,1.11.13,6.48-.37,5.37,1.95,10.92,6.94,13.49,4.99,2.57,9.44,3.08,9.44,3.08-3.3-8.32-8.58-13.56-8.58-13.56,6.86,4.9,10.24,12.06,10.24,12.06Z"/>
    <path class="st0" d="M390.01,143.08c.39-6.79-1.57-12.1-1.57-12.1,3.16,5.58,3.19,11.6,3.19,11.6,1.54-2.5,2.93-6.05,1.08-11.51-1.85-5.46-6.71-9.18-6.71-9.18,0,0-.01.93-1.98,4.51-1.97,3.58-2.15,8.16.46,11.53,2.62,3.37,5.53,5.15,5.53,5.15Z"/>
    <path class="st0" d="M367.67,229.68c-3.11-2.3-7.59-4.52-14.96-2.71-7.36,1.81-12.78,7.76-12.78,7.76,0,0,1.21.12,5.69,3.11,4.48,2.99,10.45,3.73,15.16.68,4.71-3.05,7.36-6.66,7.36-6.66-8.86-1.27-16.03.7-16.03.7,7.66-3.51,15.55-2.89,15.55-2.89Z"/>
    <path class="st0" d="M370.6,216.03s2.68-3.6,4.22-8.99c1.54-5.39-.92-10.89-5.08-14.3-4.17-3.41-4.64-4.53-4.64-4.53,0,0-4.11,6.92-3.69,14.49.42,7.57,3.85,11.21,6.96,13.51,0,0-2.9-7.37-1.78-15.72,0,0,.2,7.43,4.01,15.53Z"/>
    <path class="st0" d="M394.62,83.52c-81.94,0-148.61,66.66-148.61,148.61s66.66,148.6,148.61,148.6,148.61-66.66,148.61-148.6-66.66-148.61-148.61-148.61ZM394.62,374.82c-78.68,0-142.7-64.01-142.7-142.7s64.01-142.7,142.7-142.7,142.69,64.01,142.69,142.7-64.01,142.7-142.69,142.7Z"/>
  </g>
</svg>